<svg width="172" height="174" viewBox="0 0 172 174" fill="none" xmlns="http://www.w3.org/2000/svg">
<path d="M0 0L171.327 0V173.856H0L0 0Z" fill="white"/>
<path fill-rule="evenodd" clip-rule="evenodd" d="M132.319 52.6216L132.397 54.1523C132.767 61.4727 129.969 68.898 124.113 74.2018C121.197 76.8426 117.831 78.6776 114.291 79.7179C115.68 85.4879 116.487 90.5832 115.772 96.6539L115.77 96.6706L115.415 99.1376C115.415 99.1378 115.415 99.138 115.415 99.1382C113.766 110.717 107.265 121.509 98.0379 129.866C82.919 143.558 61.9048 146.606 44.1754 139.477L45.0421 136.998C56.9321 140.569 70.6103 137.392 80.5482 128.392C88.5079 121.183 92.637 113.882 93.2465 104.075L92.9799 104.047C83.5166 103.068 74.157 98.7928 67.2294 91.134C60.3498 83.5282 56.9251 73.9994 56.8629 64.4919L56.8437 61.5585L59.7598 61.8602C69.2517 62.8425 78.4362 67.2041 85.3456 74.8429L83.3978 76.6069C77.5816 70.1768 70.0448 66.233 62.1227 64.8424C61.2494 64.6891 60.3714 64.5669 59.4905 64.4757C59.4963 65.3618 59.5334 66.248 59.6017 67.1326C60.2188 75.119 63.3889 82.9705 69.1773 89.3699C74.9945 95.8012 82.6668 99.6889 90.617 101.068C91.4917 101.219 92.3699 101.341 93.2493 101.432C93.2434 100.545 93.2047 99.6584 93.1333 98.7742C92.4891 90.7999 89.1856 83.0057 83.3978 76.6069L85.3456 74.8429C92.2004 82.4213 95.8144 91.8706 95.8769 101.415L95.8961 104.349L95.8623 104.345C95.1776 114.929 90.633 122.806 82.3119 130.342C76.2819 135.803 68.9388 139.27 61.3645 140.529C73.758 141.057 86.3541 136.9 96.2743 127.916C105.144 119.883 111.268 109.618 112.813 98.7658L112.814 98.7637L113.164 96.3284C113.824 90.7089 113.092 85.9658 111.735 80.3263C103.406 81.8556 94.4946 79.1636 88.3894 72.414C81.5962 64.9036 80.1439 54.4343 83.7936 45.6728L83.7971 45.6645L84.6022 43.8043L85.8306 44.3878C87.1446 45.0119 88.4371 45.6936 89.7044 46.4326L89.7119 46.4369L90.2905 46.7795C94.5961 49.3667 98.5978 52.6231 102.14 56.5392C106.585 61.453 109.924 66.9832 112.171 72.8223L112.174 72.8304L112.411 73.4596C112.864 74.6851 113.27 75.9235 113.628 77.1719C116.769 76.2366 119.755 74.6014 122.349 72.252C127.194 67.8638 129.704 61.8576 129.799 55.7932C128.627 55.9862 127.456 56.1248 126.289 56.2106L126.283 56.211L125.615 56.2543L125.61 56.2547C113.061 56.9585 101.065 51.5748 93.1953 42.1747L93.191 42.1695L92.7633 41.648L92.7625 41.6487C92.7366 41.6165 92.7106 41.5843 92.6847 41.552C91.9284 40.6101 91.2127 39.6296 90.5411 38.6127L89.3992 37.3505C89.4593 37.296 90.2819 36.56 90.3389 36.5093C90.3762 36.4761 90.4139 36.4428 90.4516 36.4097L90.4651 36.3979L90.4788 36.3865C91.3544 35.6584 92.4652 34.837 93.5395 34.0998C93.9773 33.7994 94.4123 33.5107 94.8268 33.2457L94.9268 33.1818L95.5941 32.9087C106.555 27.9255 117.891 29.7192 125.784 38.344L125.789 38.3492L125.794 38.3544C126.13 38.7293 126.457 39.109 126.775 39.4933L126.78 39.4987L126.784 39.5042C128.846 42.0449 130.338 44.8809 131.269 47.8479L131.7 49.2221L130.293 49.5263C128.618 49.8887 126.94 50.1181 125.274 50.2211L125.267 50.2215L124.57 50.2571L124.563 50.2573C114.389 50.668 104.689 46.3826 98.1112 38.9368L96.9376 37.6084L98.5482 36.8708C106.259 33.3392 115.683 35.0138 121.68 41.6445L119.732 43.4086C114.968 38.1414 107.71 36.4723 101.379 38.5779C107.382 44.5842 115.73 47.9802 124.449 47.6304C124.452 47.6303 124.454 47.6302 124.456 47.6301L125.111 47.5967C125.113 47.5965 125.115 47.5964 125.118 47.5962C126.165 47.5313 127.218 47.412 128.272 47.2364C127.441 45.0902 126.268 43.04 124.749 41.1668C124.455 40.8118 124.153 40.461 123.842 40.1144C116.796 32.4193 106.707 30.7357 96.66 35.3125L96.6368 35.3231L96.143 35.5252C95.784 35.7562 95.4073 36.007 95.0261 36.2685C94.3585 36.7266 93.686 37.2122 93.0787 37.6773C93.6022 38.4416 94.1528 39.1829 94.7287 39.9004C94.7301 39.9021 94.7315 39.9039 94.7329 39.9056L95.2092 40.4866C95.2107 40.4883 95.2121 40.49 95.2136 40.4917C102.56 49.2631 113.755 54.2841 125.456 53.6297C125.458 53.6296 125.46 53.6295 125.462 53.6294L126.096 53.5883C126.097 53.5881 126.099 53.588 126.101 53.5879C127.668 53.4724 129.243 53.2549 130.819 52.9304L132.319 52.6216ZM111.067 77.7746C103.652 79.0702 95.7593 76.6442 90.3373 70.6499C84.4292 64.1181 83.0261 55.0852 85.9454 47.3739C86.7663 47.7925 87.5777 48.2353 88.3783 48.7021C88.3796 48.7028 88.3808 48.7035 88.382 48.7042L88.9383 49.0336C88.9396 49.0343 88.9409 49.0351 88.9422 49.0359C93.0273 51.4911 96.8263 54.5822 100.192 58.3033C104.415 62.972 107.584 68.2216 109.717 73.7617C109.718 73.7633 109.718 73.7648 109.719 73.7663L109.947 74.3714C109.948 74.3729 109.948 74.3744 109.949 74.3759C110.364 75.4981 110.736 76.6318 111.067 77.7746Z" fill="black"/>
</svg>
