<svg width="77" height="77" viewBox="0 0 77 77" fill="none" xmlns="http://www.w3.org/2000/svg">
<path d="M0 0H77V77H0V0Z" fill="#F4BA97"/>
<path fill-rule="evenodd" clip-rule="evenodd" d="M62.0376 21.076L62.0772 21.8594C62.2665 25.6056 60.8349 29.4054 57.8379 32.1197C56.3457 33.4711 54.6232 34.4101 52.8116 34.9425C53.5224 37.8953 53.9357 40.5028 53.5695 43.6095L53.5685 43.618L53.3867 44.8805C53.3867 44.8806 53.3867 44.8807 53.3867 44.8808C52.543 50.8061 49.2161 56.329 44.4942 60.6055C36.7571 67.6125 26.0032 69.1724 16.9302 65.524L17.3737 64.2554C23.4584 66.0827 30.4582 64.4572 35.5439 59.8513C39.6172 56.1623 41.7303 52.4261 42.0422 47.407L41.9058 47.3929C37.0629 46.8918 32.2732 44.7041 28.728 40.7847C25.2074 36.8924 23.4548 32.0161 23.423 27.1506L23.4132 25.6495L24.9055 25.8039C29.7629 26.3065 34.4631 28.5386 37.9989 32.4477L37.0021 33.3505C34.0257 30.0599 30.1688 28.0417 26.1147 27.33C25.6678 27.2516 25.2185 27.189 24.7677 27.1423C24.7706 27.5958 24.7896 28.0493 24.8246 28.502C25.1403 32.589 26.7626 36.607 29.7248 39.8819C32.7018 43.1731 36.628 45.1626 40.6965 45.8682C41.1442 45.9458 41.5936 46.0079 42.0436 46.0545C42.0406 45.6006 42.0208 45.147 41.9843 44.6945C41.6546 40.6137 39.964 36.625 37.0021 33.3505L37.9989 32.4477C41.5069 36.3259 43.3563 41.1616 43.3883 46.0462L43.3981 47.5474L43.3808 47.5456C43.0304 52.9616 40.7048 56.9926 36.4464 60.8492C33.3606 63.6438 29.6028 65.418 25.7267 66.0624C32.069 66.3327 38.515 64.2053 43.5917 59.6076C48.1309 55.4967 51.2648 50.2438 52.0554 44.6902L52.0556 44.6891L52.235 43.4429C52.5727 40.5671 52.1983 38.1399 51.5035 35.2539C47.2413 36.0365 42.6809 34.6588 39.5566 31.2047C36.0802 27.3613 35.337 22.0037 37.2047 17.52L37.2065 17.5157L37.6185 16.5638L38.2471 16.8624C38.9195 17.1818 39.581 17.5306 40.2295 17.9088L40.2334 17.911L40.5294 18.0863C42.7328 19.4104 44.7807 21.0768 46.5934 23.0809C48.868 25.5955 50.5768 28.4256 51.7267 31.4137L51.7283 31.4178L51.8497 31.7398C52.0816 32.367 52.2891 33.0007 52.4722 33.6396C54.0795 33.1609 55.6078 32.3241 56.9354 31.1218C59.415 28.8762 60.6992 25.8025 60.7477 22.6991C60.148 22.7979 59.5488 22.8688 58.9517 22.9127L58.9488 22.9129L58.6069 22.9351L58.604 22.9353C52.1822 23.2954 46.0435 20.5403 42.016 15.7299L42.0138 15.7272L41.7949 15.4603L41.7945 15.4607C41.7812 15.4442 41.768 15.4277 41.7547 15.4112C41.3676 14.9292 41.0014 14.4274 40.6577 13.907L40.0733 13.2611C40.1041 13.2332 40.5251 12.8565 40.5542 12.8306C40.5733 12.8136 40.5926 12.7966 40.6119 12.7796L40.6188 12.7736L40.6258 12.7677C41.0739 12.3952 41.6423 11.9748 42.1921 11.5976C42.4162 11.4438 42.6388 11.2961 42.8509 11.1605L42.9021 11.1277L43.2436 10.988C48.8528 8.43788 54.654 9.35577 58.6934 13.7695L58.6958 13.7722L58.6982 13.7748C58.87 13.9667 59.0375 14.161 59.2006 14.3576L59.2029 14.3604L59.2051 14.3632C60.2599 15.6634 61.0238 17.1148 61.5001 18.6331L61.7207 19.3364L61.0009 19.492C60.1432 19.6775 59.2849 19.7949 58.432 19.8476L58.4284 19.8478L58.0721 19.866L58.0685 19.8661C52.8616 20.0763 47.8979 17.8832 44.5317 14.0729L43.9311 13.3931L44.7553 13.0156C48.7014 11.2083 53.5238 12.0653 56.5931 15.4586L55.5962 16.3613C53.1581 13.6658 49.444 12.8117 46.2038 13.8892C49.2759 16.9629 53.5481 18.7008 58.0102 18.5218C58.0114 18.5217 58.0126 18.5217 58.0138 18.5216L58.3486 18.5045C58.3498 18.5045 58.351 18.5044 58.3522 18.5043C58.8884 18.4711 59.4271 18.41 59.9666 18.3202C59.541 17.2218 58.9409 16.1727 58.1637 15.214C58.013 15.0324 57.8583 14.8529 57.6995 14.6755C54.0936 10.7375 48.9308 9.87596 43.7891 12.2182L43.7772 12.2236L43.5245 12.327C43.3408 12.4452 43.148 12.5735 42.9529 12.7074C42.6113 12.9418 42.2671 13.1903 41.9563 13.4283C42.2242 13.8194 42.506 14.1988 42.8007 14.566C42.8014 14.5669 42.8021 14.5678 42.8028 14.5687L43.0466 14.866C43.0474 14.8668 43.0481 14.8677 43.0488 14.8686C46.8084 19.3573 52.5375 21.9268 58.5253 21.5919C58.5263 21.5919 58.5273 21.5918 58.5282 21.5918L58.8526 21.5707C58.8536 21.5707 58.8546 21.5706 58.8555 21.5705C59.6574 21.5114 60.4635 21.4001 61.27 21.2341L62.0376 21.076ZM51.1618 33.948C47.3673 34.6111 43.3281 33.3696 40.5534 30.302C37.5299 26.9594 36.8119 22.3368 38.3059 18.3906C38.726 18.6048 39.1412 18.8313 39.5509 19.0702C39.5516 19.0706 39.5522 19.071 39.5528 19.0713L39.8375 19.2399C39.8382 19.2403 39.8388 19.2407 39.8395 19.2411C41.93 20.4975 43.8742 22.0793 45.5966 23.9836C47.7577 26.3728 49.3796 29.0593 50.4709 31.8945C50.4712 31.8952 50.4715 31.896 50.4718 31.8968L50.5886 32.2064C50.5889 32.2072 50.5892 32.208 50.5895 32.2088C50.8018 32.7831 50.9925 33.3632 51.1618 33.948Z" fill="black"/>
</svg>
