<svg width="340" height="340" viewBox="0 0 340 340" fill="none" xmlns="http://www.w3.org/2000/svg">
<path d="M0 0H340V340H0V0Z" fill="#EFCFD0"/>
<path opacity="0.6" d="M197.975 290.4H213.35V292.2H197.975V290.4ZM203.4 296.15H210.575V297.9H203.4V296.15ZM204.725 286H206.575V291.1H204.725V286ZM210.075 296.15H211.95C211.95 296.15 211.95 296.75 211.925 297.025C211.6 304.425 211.325 307.125 210.525 308.025C210.025 308.625 209.525 308.825 208.725 308.875C207.975 308.925 206.6 308.925 205.2 308.85C205.175 308.275 204.95 307.5 204.6 307C206.05 307.125 207.425 307.125 207.95 307.125C208.4 307.125 208.675 307.1 208.9 306.825C209.5 306.225 209.8 303.575 210.075 296.475V296.15ZM190.625 292.3H198.65V294.075H190.625V292.3ZM193.825 286.35H195.65V302.975H193.825V286.35ZM190.2 303.375C192.4 302.65 195.7 301.475 198.9 300.275L199.25 302.025C196.3 303.175 193.15 304.375 190.775 305.3L190.2 303.375ZM202.5 291.375H204.375V295.775C204.375 300.05 203.6 305.25 197.9 309.025C197.575 308.625 196.95 308.1 196.475 307.75C201.875 304.175 202.5 299.4 202.5 295.75V291.375Z" fill="white"/>
<path opacity="0.6" d="M158.25 287.65H180.425V289.075H158.25V287.65ZM158.125 303.925H180.475V305.15H158.125V303.925ZM159.8 291.1H168.125V292.2H159.8V291.1ZM169.9 292.2H177.15V293.6H169.9V292.2ZM161.275 301.45H177.5V302.675H161.275V301.45ZM159.525 297.175H168.525V298.275H159.525V297.175ZM158.575 293.225H169.275V294.35H158.575V293.225ZM164.2 286H166.025V290.2H164.2V286ZM163.175 290.275H164.8V293.975H163.175V290.275ZM163.2 295.9H164.8V300.1H163.2V295.9ZM172.55 286H174.375V290.2H172.55V286ZM159.525 307.6C163.65 307.45 170.475 307.15 176.975 306.85L176.925 308.05C170.675 308.4 164.025 308.775 159.725 308.95L159.525 307.6ZM158.475 299.75C161.125 299.625 165.225 299.4 169.225 299.125V300.225C165.375 300.525 161.4 300.825 158.6 301L158.475 299.75ZM161.525 293.8H162.8C162.525 295.6 161.55 296.5 158.975 297.025C158.85 296.725 158.5 296.25 158.225 296.05C160.5 295.7 161.3 295.1 161.525 293.8ZM176.325 292.2H177.875V298.325C177.875 298.825 177.875 299.1 177.975 299.175C178.05 299.275 178.15 299.3 178.3 299.3C178.45 299.3 178.7 299.3 178.875 299.3C179.05 299.3 179.225 299.275 179.325 299.2C179.425 299.15 179.5 298.975 179.525 298.675C179.575 298.375 179.6 297.675 179.625 296.775C179.925 297.025 180.4 297.25 180.775 297.375C180.75 298.25 180.675 299.3 180.55 299.65C180.45 300.025 180.225 300.25 179.95 300.4C179.725 300.575 179.3 300.625 178.95 300.625C178.7 300.625 178.175 300.625 177.95 300.625C177.5 300.625 177.025 300.5 176.725 300.225C176.425 299.925 176.325 299.575 176.325 298.25V292.2ZM172.45 305.9L173.725 305.075C175.8 305.925 178.3 307.425 179.6 308.475L178.3 309.425C177.025 308.3 174.55 306.775 172.45 305.9ZM164.75 293.8H166V295.075C166 295.475 166.05 295.525 166.45 295.525C166.65 295.525 167.55 295.525 167.8 295.525C168.15 295.525 168.25 295.425 168.3 294.7C168.525 294.875 168.975 295 169.325 295.1C169.225 296.175 168.85 296.475 168 296.475C167.75 296.475 166.55 296.475 166.3 296.475C165.05 296.475 164.75 296.225 164.75 295.075V293.8ZM164.925 304.325L166.6 304.85C165.8 306.05 164.875 307.325 164.1 308.2L162.775 307.725C163.525 306.8 164.45 305.325 164.925 304.325ZM169.6 295.475L170.525 294.4C172.425 295.175 174.725 296.525 175.85 297.625L174.875 298.825C173.775 297.725 171.55 296.325 169.6 295.475ZM172.775 290.5H174.25V292.825C174.25 295.4 173.75 298.7 169.825 301.125C169.6 300.825 169.075 300.35 168.7 300.075C172.325 297.875 172.775 294.925 172.775 292.8V290.5Z" fill="white"/>
<path opacity="0.6" d="M131.8 292.75L133.65 293.325C131.9 296.8 129.2 300.125 126.55 302.275C126.225 301.95 125.45 301.275 125 300.975C127.7 299.025 130.25 295.95 131.8 292.75ZM137.1 292.975H138.95V305.625C138.95 306.675 139.2 306.875 140.475 306.875C141.1 306.875 144.2 306.875 145 306.875C146.2 306.875 146.4 306.225 146.55 303C146.975 303.325 147.75 303.65 148.25 303.775C148 307.55 147.45 308.65 145.1 308.65C144.55 308.65 140.875 308.65 140.325 308.65C137.8 308.65 137.1 308 137.1 305.6V292.975ZM145.775 295.15L147.225 296.575C144.875 298.125 141.45 299.65 138.425 300.875C138.325 300.475 138 299.85 137.75 299.475C140.65 298.275 143.9 296.6 145.775 295.15ZM125.8 288.3H147.8V290.1H125.8V288.3ZM131.825 286H133.675V292.75H131.825V286ZM140.025 286H141.875V292.9H140.025V286ZM129.725 297.5L131.55 295.65V295.675V309H129.725V297.5Z" fill="white"/>
<path opacity="0.6" d="M197.975 290.4H213.35V292.2H197.975V290.4ZM203.4 296.15H210.575V297.9H203.4V296.15ZM204.725 286H206.575V291.1H204.725V286ZM210.075 296.15H211.95C211.95 296.15 211.95 296.75 211.925 297.025C211.6 304.425 211.325 307.125 210.525 308.025C210.025 308.625 209.525 308.825 208.725 308.875C207.975 308.925 206.6 308.925 205.2 308.85C205.175 308.275 204.95 307.5 204.6 307C206.05 307.125 207.425 307.125 207.95 307.125C208.4 307.125 208.675 307.1 208.9 306.825C209.5 306.225 209.8 303.575 210.075 296.475V296.15ZM190.625 292.3H198.65V294.075H190.625V292.3ZM193.825 286.35H195.65V302.975H193.825V286.35ZM190.2 303.375C192.4 302.65 195.7 301.475 198.9 300.275L199.25 302.025C196.3 303.175 193.15 304.375 190.775 305.3L190.2 303.375ZM202.5 291.375H204.375V295.775C204.375 300.05 203.6 305.25 197.9 309.025C197.575 308.625 196.95 308.1 196.475 307.75C201.875 304.175 202.5 299.4 202.5 295.75V291.375Z" fill="#6B8C53"/>
<path opacity="0.6" d="M158.25 287.65H180.425V289.075H158.25V287.65ZM158.125 303.925H180.475V305.15H158.125V303.925ZM159.8 291.1H168.125V292.2H159.8V291.1ZM169.9 292.2H177.15V293.6H169.9V292.2ZM161.275 301.45H177.5V302.675H161.275V301.45ZM159.525 297.175H168.525V298.275H159.525V297.175ZM158.575 293.225H169.275V294.35H158.575V293.225ZM164.2 286H166.025V290.2H164.2V286ZM163.175 290.275H164.8V293.975H163.175V290.275ZM163.2 295.9H164.8V300.1H163.2V295.9ZM172.55 286H174.375V290.2H172.55V286ZM159.525 307.6C163.65 307.45 170.475 307.15 176.975 306.85L176.925 308.05C170.675 308.4 164.025 308.775 159.725 308.95L159.525 307.6ZM158.475 299.75C161.125 299.625 165.225 299.4 169.225 299.125V300.225C165.375 300.525 161.4 300.825 158.6 301L158.475 299.75ZM161.525 293.8H162.8C162.525 295.6 161.55 296.5 158.975 297.025C158.85 296.725 158.5 296.25 158.225 296.05C160.5 295.7 161.3 295.1 161.525 293.8ZM176.325 292.2H177.875V298.325C177.875 298.825 177.875 299.1 177.975 299.175C178.05 299.275 178.15 299.3 178.3 299.3C178.45 299.3 178.7 299.3 178.875 299.3C179.05 299.3 179.225 299.275 179.325 299.2C179.425 299.15 179.5 298.975 179.525 298.675C179.575 298.375 179.6 297.675 179.625 296.775C179.925 297.025 180.4 297.25 180.775 297.375C180.75 298.25 180.675 299.3 180.55 299.65C180.45 300.025 180.225 300.25 179.95 300.4C179.725 300.575 179.3 300.625 178.95 300.625C178.7 300.625 178.175 300.625 177.95 300.625C177.5 300.625 177.025 300.5 176.725 300.225C176.425 299.925 176.325 299.575 176.325 298.25V292.2ZM172.45 305.9L173.725 305.075C175.8 305.925 178.3 307.425 179.6 308.475L178.3 309.425C177.025 308.3 174.55 306.775 172.45 305.9ZM164.75 293.8H166V295.075C166 295.475 166.05 295.525 166.45 295.525C166.65 295.525 167.55 295.525 167.8 295.525C168.15 295.525 168.25 295.425 168.3 294.7C168.525 294.875 168.975 295 169.325 295.1C169.225 296.175 168.85 296.475 168 296.475C167.75 296.475 166.55 296.475 166.3 296.475C165.05 296.475 164.75 296.225 164.75 295.075V293.8ZM164.925 304.325L166.6 304.85C165.8 306.05 164.875 307.325 164.1 308.2L162.775 307.725C163.525 306.8 164.45 305.325 164.925 304.325ZM169.6 295.475L170.525 294.4C172.425 295.175 174.725 296.525 175.85 297.625L174.875 298.825C173.775 297.725 171.55 296.325 169.6 295.475ZM172.775 290.5H174.25V292.825C174.25 295.4 173.75 298.7 169.825 301.125C169.6 300.825 169.075 300.35 168.7 300.075C172.325 297.875 172.775 294.925 172.775 292.8V290.5Z" fill="#6B8C53"/>
<path opacity="0.6" d="M131.8 292.75L133.65 293.325C131.9 296.8 129.2 300.125 126.55 302.275C126.225 301.95 125.45 301.275 125 300.975C127.7 299.025 130.25 295.95 131.8 292.75ZM137.1 292.975H138.95V305.625C138.95 306.675 139.2 306.875 140.475 306.875C141.1 306.875 144.2 306.875 145 306.875C146.2 306.875 146.4 306.225 146.55 303C146.975 303.325 147.75 303.65 148.25 303.775C148 307.55 147.45 308.65 145.1 308.65C144.55 308.65 140.875 308.65 140.325 308.65C137.8 308.65 137.1 308 137.1 305.6V292.975ZM145.775 295.15L147.225 296.575C144.875 298.125 141.45 299.65 138.425 300.875C138.325 300.475 138 299.85 137.75 299.475C140.65 298.275 143.9 296.6 145.775 295.15ZM125.8 288.3H147.8V290.1H125.8V288.3ZM131.825 286H133.675V292.75H131.825V286ZM140.025 286H141.875V292.9H140.025V286ZM129.725 297.5L131.55 295.65V295.675V309H129.725V297.5Z" fill="#6B8C53"/>
<path opacity="0.6" d="M197.975 290.4H213.35V292.2H197.975V290.4ZM203.4 296.15H210.575V297.9H203.4V296.15ZM204.725 286H206.575V291.1H204.725V286ZM210.075 296.15H211.95C211.95 296.15 211.95 296.75 211.925 297.025C211.6 304.425 211.325 307.125 210.525 308.025C210.025 308.625 209.525 308.825 208.725 308.875C207.975 308.925 206.6 308.925 205.2 308.85C205.175 308.275 204.95 307.5 204.6 307C206.05 307.125 207.425 307.125 207.95 307.125C208.4 307.125 208.675 307.1 208.9 306.825C209.5 306.225 209.8 303.575 210.075 296.475V296.15ZM190.625 292.3H198.65V294.075H190.625V292.3ZM193.825 286.35H195.65V302.975H193.825V286.35ZM190.2 303.375C192.4 302.65 195.7 301.475 198.9 300.275L199.25 302.025C196.3 303.175 193.15 304.375 190.775 305.3L190.2 303.375ZM202.5 291.375H204.375V295.775C204.375 300.05 203.6 305.25 197.9 309.025C197.575 308.625 196.95 308.1 196.475 307.75C201.875 304.175 202.5 299.4 202.5 295.75V291.375Z" fill="#A3383C"/>
<path opacity="0.6" d="M158.25 287.65H180.425V289.075H158.25V287.65ZM158.125 303.925H180.475V305.15H158.125V303.925ZM159.8 291.1H168.125V292.2H159.8V291.1ZM169.9 292.2H177.15V293.6H169.9V292.2ZM161.275 301.45H177.5V302.675H161.275V301.45ZM159.525 297.175H168.525V298.275H159.525V297.175ZM158.575 293.225H169.275V294.35H158.575V293.225ZM164.2 286H166.025V290.2H164.2V286ZM163.175 290.275H164.8V293.975H163.175V290.275ZM163.2 295.9H164.8V300.1H163.2V295.9ZM172.55 286H174.375V290.2H172.55V286ZM159.525 307.6C163.65 307.45 170.475 307.15 176.975 306.85L176.925 308.05C170.675 308.4 164.025 308.775 159.725 308.95L159.525 307.6ZM158.475 299.75C161.125 299.625 165.225 299.4 169.225 299.125V300.225C165.375 300.525 161.4 300.825 158.6 301L158.475 299.75ZM161.525 293.8H162.8C162.525 295.6 161.55 296.5 158.975 297.025C158.85 296.725 158.5 296.25 158.225 296.05C160.5 295.7 161.3 295.1 161.525 293.8ZM176.325 292.2H177.875V298.325C177.875 298.825 177.875 299.1 177.975 299.175C178.05 299.275 178.15 299.3 178.3 299.3C178.45 299.3 178.7 299.3 178.875 299.3C179.05 299.3 179.225 299.275 179.325 299.2C179.425 299.15 179.5 298.975 179.525 298.675C179.575 298.375 179.6 297.675 179.625 296.775C179.925 297.025 180.4 297.25 180.775 297.375C180.75 298.25 180.675 299.3 180.55 299.65C180.45 300.025 180.225 300.25 179.95 300.4C179.725 300.575 179.3 300.625 178.95 300.625C178.7 300.625 178.175 300.625 177.95 300.625C177.5 300.625 177.025 300.5 176.725 300.225C176.425 299.925 176.325 299.575 176.325 298.25V292.2ZM172.45 305.9L173.725 305.075C175.8 305.925 178.3 307.425 179.6 308.475L178.3 309.425C177.025 308.3 174.55 306.775 172.45 305.9ZM164.75 293.8H166V295.075C166 295.475 166.05 295.525 166.45 295.525C166.65 295.525 167.55 295.525 167.8 295.525C168.15 295.525 168.25 295.425 168.3 294.7C168.525 294.875 168.975 295 169.325 295.1C169.225 296.175 168.85 296.475 168 296.475C167.75 296.475 166.55 296.475 166.3 296.475C165.05 296.475 164.75 296.225 164.75 295.075V293.8ZM164.925 304.325L166.6 304.85C165.8 306.05 164.875 307.325 164.1 308.2L162.775 307.725C163.525 306.8 164.45 305.325 164.925 304.325ZM169.6 295.475L170.525 294.4C172.425 295.175 174.725 296.525 175.85 297.625L174.875 298.825C173.775 297.725 171.55 296.325 169.6 295.475ZM172.775 290.5H174.25V292.825C174.25 295.4 173.75 298.7 169.825 301.125C169.6 300.825 169.075 300.35 168.7 300.075C172.325 297.875 172.775 294.925 172.775 292.8V290.5Z" fill="#A3383C"/>
<path opacity="0.6" d="M131.8 292.75L133.65 293.325C131.9 296.8 129.2 300.125 126.55 302.275C126.225 301.95 125.45 301.275 125 300.975C127.7 299.025 130.25 295.95 131.8 292.75ZM137.1 292.975H138.95V305.625C138.95 306.675 139.2 306.875 140.475 306.875C141.1 306.875 144.2 306.875 145 306.875C146.2 306.875 146.4 306.225 146.55 303C146.975 303.325 147.75 303.65 148.25 303.775C148 307.55 147.45 308.65 145.1 308.65C144.55 308.65 140.875 308.65 140.325 308.65C137.8 308.65 137.1 308 137.1 305.6V292.975ZM145.775 295.15L147.225 296.575C144.875 298.125 141.45 299.65 138.425 300.875C138.325 300.475 138 299.85 137.75 299.475C140.65 298.275 143.9 296.6 145.775 295.15ZM125.8 288.3H147.8V290.1H125.8V288.3ZM131.825 286H133.675V292.75H131.825V286ZM140.025 286H141.875V292.9H140.025V286ZM129.725 297.5L131.55 295.65V295.675V309H129.725V297.5Z" fill="#A3383C"/>
<path opacity="0.6" d="M197.975 290.4H213.35V292.2H197.975V290.4ZM203.4 296.15H210.575V297.9H203.4V296.15ZM204.725 286H206.575V291.1H204.725V286ZM210.075 296.15H211.95C211.95 296.15 211.95 296.75 211.925 297.025C211.6 304.425 211.325 307.125 210.525 308.025C210.025 308.625 209.525 308.825 208.725 308.875C207.975 308.925 206.6 308.925 205.2 308.85C205.175 308.275 204.95 307.5 204.6 307C206.05 307.125 207.425 307.125 207.95 307.125C208.4 307.125 208.675 307.1 208.9 306.825C209.5 306.225 209.8 303.575 210.075 296.475V296.15ZM190.625 292.3H198.65V294.075H190.625V292.3ZM193.825 286.35H195.65V302.975H193.825V286.35ZM190.2 303.375C192.4 302.65 195.7 301.475 198.9 300.275L199.25 302.025C196.3 303.175 193.15 304.375 190.775 305.3L190.2 303.375ZM202.5 291.375H204.375V295.775C204.375 300.05 203.6 305.25 197.9 309.025C197.575 308.625 196.95 308.1 196.475 307.75C201.875 304.175 202.5 299.4 202.5 295.75V291.375Z" fill="#A3383C"/>
<path opacity="0.6" d="M158.25 287.65H180.425V289.075H158.25V287.65ZM158.125 303.925H180.475V305.15H158.125V303.925ZM159.8 291.1H168.125V292.2H159.8V291.1ZM169.9 292.2H177.15V293.6H169.9V292.2ZM161.275 301.45H177.5V302.675H161.275V301.45ZM159.525 297.175H168.525V298.275H159.525V297.175ZM158.575 293.225H169.275V294.35H158.575V293.225ZM164.2 286H166.025V290.2H164.2V286ZM163.175 290.275H164.8V293.975H163.175V290.275ZM163.2 295.9H164.8V300.1H163.2V295.9ZM172.55 286H174.375V290.2H172.55V286ZM159.525 307.6C163.65 307.45 170.475 307.15 176.975 306.85L176.925 308.05C170.675 308.4 164.025 308.775 159.725 308.95L159.525 307.6ZM158.475 299.75C161.125 299.625 165.225 299.4 169.225 299.125V300.225C165.375 300.525 161.4 300.825 158.6 301L158.475 299.75ZM161.525 293.8H162.8C162.525 295.6 161.55 296.5 158.975 297.025C158.85 296.725 158.5 296.25 158.225 296.05C160.5 295.7 161.3 295.1 161.525 293.8ZM176.325 292.2H177.875V298.325C177.875 298.825 177.875 299.1 177.975 299.175C178.05 299.275 178.15 299.3 178.3 299.3C178.45 299.3 178.7 299.3 178.875 299.3C179.05 299.3 179.225 299.275 179.325 299.2C179.425 299.15 179.5 298.975 179.525 298.675C179.575 298.375 179.6 297.675 179.625 296.775C179.925 297.025 180.4 297.25 180.775 297.375C180.75 298.25 180.675 299.3 180.55 299.65C180.45 300.025 180.225 300.25 179.95 300.4C179.725 300.575 179.3 300.625 178.95 300.625C178.7 300.625 178.175 300.625 177.95 300.625C177.5 300.625 177.025 300.5 176.725 300.225C176.425 299.925 176.325 299.575 176.325 298.25V292.2ZM172.45 305.9L173.725 305.075C175.8 305.925 178.3 307.425 179.6 308.475L178.3 309.425C177.025 308.3 174.55 306.775 172.45 305.9ZM164.75 293.8H166V295.075C166 295.475 166.05 295.525 166.45 295.525C166.65 295.525 167.55 295.525 167.8 295.525C168.15 295.525 168.25 295.425 168.3 294.7C168.525 294.875 168.975 295 169.325 295.1C169.225 296.175 168.85 296.475 168 296.475C167.75 296.475 166.55 296.475 166.3 296.475C165.05 296.475 164.75 296.225 164.75 295.075V293.8ZM164.925 304.325L166.6 304.85C165.8 306.05 164.875 307.325 164.1 308.2L162.775 307.725C163.525 306.8 164.45 305.325 164.925 304.325ZM169.6 295.475L170.525 294.4C172.425 295.175 174.725 296.525 175.85 297.625L174.875 298.825C173.775 297.725 171.55 296.325 169.6 295.475ZM172.775 290.5H174.25V292.825C174.25 295.4 173.75 298.7 169.825 301.125C169.6 300.825 169.075 300.35 168.7 300.075C172.325 297.875 172.775 294.925 172.775 292.8V290.5Z" fill="#A3383C"/>
<path opacity="0.6" d="M131.8 292.75L133.65 293.325C131.9 296.8 129.2 300.125 126.55 302.275C126.225 301.95 125.45 301.275 125 300.975C127.7 299.025 130.25 295.95 131.8 292.75ZM137.1 292.975H138.95V305.625C138.95 306.675 139.2 306.875 140.475 306.875C141.1 306.875 144.2 306.875 145 306.875C146.2 306.875 146.4 306.225 146.55 303C146.975 303.325 147.75 303.65 148.25 303.775C148 307.55 147.45 308.65 145.1 308.65C144.55 308.65 140.875 308.65 140.325 308.65C137.8 308.65 137.1 308 137.1 305.6V292.975ZM145.775 295.15L147.225 296.575C144.875 298.125 141.45 299.65 138.425 300.875C138.325 300.475 138 299.85 137.75 299.475C140.65 298.275 143.9 296.6 145.775 295.15ZM125.8 288.3H147.8V290.1H125.8V288.3ZM131.825 286H133.675V292.75H131.825V286ZM140.025 286H141.875V292.9H140.025V286ZM129.725 297.5L131.55 295.65V295.675V309H129.725V297.5Z" fill="#A3383C"/>
<path d="M274.76 238.169C274.903 237.489 275.154 236.987 275.512 236.665C275.906 236.343 276.371 236.146 276.908 236.074C277.875 236.074 278.591 236.719 279.057 238.008C279.522 242.52 279.898 246.995 280.185 251.436C280.507 255.876 281.062 260.155 281.85 264.272C283.103 264.272 284.374 264.29 285.663 264.326C286.988 264.326 288.331 264.326 289.691 264.326C291.983 264.326 294.293 264.272 296.62 264.165C297.336 264.38 297.855 264.702 298.178 265.132C298.5 265.526 298.661 265.955 298.661 266.421C298.59 266.958 298.393 267.424 298.07 267.817C297.748 268.211 297.247 268.462 296.566 268.569C294.74 268.641 292.896 268.766 291.034 268.945C289.208 269.16 287.382 269.268 285.556 269.268C284.947 269.268 284.249 269.25 283.461 269.214C282.709 269.178 281.975 269.089 281.259 268.945C280.543 268.802 279.88 268.587 279.271 268.301C278.663 268.014 278.215 267.62 277.929 267.119C277.463 265.15 277.123 263.234 276.908 261.372C276.693 259.474 276.496 257.559 276.317 255.625C275.995 252.725 275.727 249.824 275.512 246.924C275.297 244.023 275.046 241.105 274.76 238.169Z" fill="#A3383C"/>
<path d="M248.259 257.666C248.08 257.63 247.919 257.612 247.775 257.612C247.704 257.612 247.525 257.881 247.238 258.418C246.952 258.919 246.612 259.51 246.218 260.19C245.86 260.835 245.502 261.497 245.144 262.178C244.785 262.822 244.517 263.288 244.338 263.574C243.765 264.255 243.12 264.595 242.404 264.595C241.867 264.595 241.402 264.416 241.008 264.058C240.614 263.664 240.417 263.109 240.417 262.393C240.417 262.106 240.435 261.873 240.471 261.694C241.652 259.618 242.78 257.576 243.854 255.571C244.929 253.566 246.039 251.579 247.185 249.609C248.366 247.64 249.602 245.724 250.891 243.862C252.18 241.965 253.63 240.12 255.241 238.33C255.492 238.044 255.76 237.865 256.047 237.793C256.333 237.686 256.602 237.614 256.853 237.578C257.39 237.578 257.837 237.775 258.195 238.169C258.589 238.563 258.822 239.046 258.894 239.619C258.786 240.013 258.661 240.282 258.518 240.425L258.947 240.21C259.413 240.21 259.896 240.335 260.397 240.586C260.935 240.837 261.311 241.32 261.525 242.036C261.812 244.041 262.152 245.993 262.546 247.891C262.94 249.753 263.316 251.632 263.674 253.53C264.068 255.392 264.408 257.272 264.694 259.17C265.017 261.068 265.214 263.037 265.285 265.078C265.285 265.794 265.07 266.349 264.641 266.743C264.211 267.101 263.745 267.28 263.244 267.28C262.707 267.28 262.188 267.119 261.687 266.797C261.221 266.475 260.952 265.92 260.881 265.132C260.809 262.625 260.594 260.262 260.236 258.042C260.165 258.114 259.968 258.167 259.646 258.203C257.712 258.203 255.778 258.114 253.845 257.935C251.947 257.756 250.085 257.666 248.259 257.666ZM250.139 253.369C251.428 253.441 252.932 253.53 254.65 253.638C256.369 253.745 257.945 253.799 259.377 253.799H259.431L259.377 253.53C259.27 253.172 259.144 252.653 259.001 251.973C258.858 251.292 258.697 250.558 258.518 249.771C258.374 248.983 258.213 248.177 258.034 247.354C257.891 246.494 257.748 245.724 257.604 245.044C257.461 244.364 257.336 243.809 257.229 243.379C257.157 242.949 257.121 242.734 257.121 242.734C256.799 243.021 256.351 243.54 255.778 244.292C255.277 244.937 254.632 245.885 253.845 247.139C253.057 248.356 252.072 250.021 250.891 252.134L250.139 253.369Z" fill="#A3383C"/>
<path d="M222.778 242.036C222.671 245.868 222.617 249.824 222.617 253.906V266.475C222.617 267.119 222.384 267.638 221.919 268.032C221.489 268.426 221.024 268.623 220.522 268.623C220.021 268.623 219.52 268.444 219.019 268.086C218.553 267.764 218.285 267.191 218.213 266.367V254.014C218.213 250.039 218.267 246.19 218.374 242.466C216.655 242.645 215.116 242.806 213.755 242.949C212.394 243.057 211.195 243.182 210.156 243.325C209.44 243.254 208.885 243.003 208.491 242.573C208.133 242.144 207.954 241.624 207.954 241.016C207.954 240.335 208.276 239.816 208.921 239.458C209.565 239.1 210.425 238.831 211.499 238.652C212.573 238.438 213.809 238.294 215.205 238.223C216.637 238.151 218.141 238.044 219.717 237.9C221.901 237.721 223.835 237.578 225.518 237.471C227.201 237.363 228.651 237.31 229.868 237.31C231.157 237.775 231.802 238.491 231.802 239.458C231.694 240.21 231.372 240.747 230.835 241.069C230.334 241.392 229.671 241.606 228.848 241.714C228.06 241.821 227.147 241.875 226.108 241.875C225.07 241.875 223.96 241.929 222.778 242.036Z" fill="#A3383C"/>
<path d="M183.226 268.14C183.226 268.748 182.993 269.25 182.527 269.644C182.098 270.037 181.632 270.234 181.131 270.234C180.63 270.234 180.128 270.055 179.627 269.697C179.161 269.375 178.893 268.838 178.821 268.086C178.821 265.687 178.839 263.306 178.875 260.942C178.947 258.579 178.982 256.198 178.982 253.799C178.982 253.118 178.929 252.044 178.821 250.576C178.75 249.072 178.714 247.515 178.714 245.903C178.714 244.185 178.768 242.502 178.875 240.854C179.018 239.207 179.34 237.775 179.842 236.558L180.164 236.021L180.755 235.537C181.722 235.179 182.724 235 183.763 235C185.231 235 186.806 235.161 188.489 235.483C190.172 235.77 191.73 236.289 193.162 237.041C194.594 237.793 195.776 238.813 196.707 240.103C197.674 241.356 198.157 242.967 198.157 244.937C198.157 245.868 198.014 246.727 197.728 247.515C197.477 248.302 197.137 249.019 196.707 249.663C196.313 250.308 195.848 250.881 195.311 251.382C194.809 251.883 194.308 252.295 193.807 252.617C192.768 253.298 191.622 253.835 190.369 254.229C189.116 254.587 187.809 254.998 186.448 255.464L185.804 255.679C185.732 255.643 185.696 255.625 185.696 255.625C186.556 256.234 187.361 256.878 188.113 257.559C188.901 258.203 189.689 258.848 190.477 259.492C191.3 260.137 192.142 260.763 193.001 261.372C193.896 261.945 194.863 262.482 195.901 262.983C196.582 263.628 196.922 264.308 196.922 265.024C196.922 265.633 196.707 266.134 196.277 266.528C195.883 266.886 195.4 267.065 194.827 267.065C194.397 267.065 193.896 266.94 193.323 266.689C192.75 266.439 192.16 266.134 191.551 265.776C190.942 265.382 190.315 264.971 189.671 264.541C189.062 264.111 188.489 263.717 187.952 263.359C187.021 262.751 186.162 262.124 185.374 261.479C184.622 260.835 183.942 260.208 183.333 259.6V260.728C183.333 261.909 183.297 263.127 183.226 264.38C183.19 265.597 183.19 266.851 183.226 268.14ZM183.387 251.65C183.315 251.722 183.279 251.758 183.279 251.758C183.243 251.758 183.333 251.722 183.548 251.65C184.336 251.436 185.302 251.221 186.448 251.006C187.63 250.755 188.758 250.415 189.832 249.985C190.906 249.52 191.819 248.911 192.571 248.159C193.359 247.371 193.753 246.315 193.753 244.99C193.753 243.916 193.538 243.075 193.108 242.466C192.715 241.857 192.177 241.392 191.497 241.069C190.853 240.711 190.118 240.461 189.295 240.317C188.471 240.138 187.648 239.959 186.824 239.78C186.359 239.673 185.84 239.583 185.267 239.512C184.694 239.404 184.21 239.351 183.816 239.351C183.673 239.351 183.566 239.583 183.494 240.049C183.423 240.479 183.369 240.998 183.333 241.606C183.333 242.215 183.333 242.824 183.333 243.433C183.333 244.006 183.333 244.435 183.333 244.722C183.333 246.047 183.333 247.3 183.333 248.481C183.369 249.663 183.387 250.719 183.387 251.65Z" fill="#A3383C"/>
<path d="M159.249 236.343C159.571 236.343 159.876 236.379 160.162 236.45C160.413 236.2 160.842 236.074 161.451 236.074C162.311 236.074 162.955 236.414 163.385 237.095L164.513 238.975C165.408 239.87 166.142 240.908 166.715 242.09C167.324 243.236 167.807 244.435 168.165 245.688C168.523 246.942 168.774 248.195 168.917 249.448C169.06 250.701 169.132 251.865 169.132 252.939C169.132 254.766 168.863 256.663 168.326 258.633C167.789 260.602 166.822 262.393 165.426 264.004C164.137 265.651 162.973 266.851 161.935 267.603C160.896 268.319 159.643 268.677 158.175 268.677C157.566 268.677 156.778 268.605 155.812 268.462C154.881 268.319 153.914 268.014 152.911 267.549C151.944 267.083 151.031 266.403 150.172 265.508C149.312 264.613 148.686 263.413 148.292 261.909C147.934 260.656 147.665 259.564 147.486 258.633C147.343 257.666 147.271 256.699 147.271 255.732C147.271 254.014 147.415 252.331 147.701 250.684C148.023 249.001 148.453 247.443 148.99 246.011C149.527 244.543 150.172 243.236 150.924 242.09C151.712 240.944 152.571 240.031 153.502 239.351C155.006 238.276 156.922 237.274 159.249 236.343ZM160.431 240.586L158.927 241.069C157.924 241.392 157.047 241.929 156.295 242.681C155.543 243.397 154.898 244.22 154.361 245.151C153.824 246.082 153.377 247.067 153.019 248.105C152.66 249.108 152.374 250.075 152.159 251.006C151.944 251.937 151.783 252.76 151.676 253.477C151.604 254.193 151.568 254.694 151.568 254.98C151.568 257.487 152.267 260.083 153.663 262.769C154.343 263.341 155.024 263.771 155.704 264.058C156.42 264.344 157.333 264.487 158.443 264.487C158.515 264.487 158.622 264.451 158.766 264.38L159.088 264.272C159.16 264.237 159.231 264.201 159.303 264.165C159.374 264.129 159.446 264.076 159.518 264.004L160.216 263.413C160.359 263.377 160.466 263.27 160.538 263.091C161.183 262.375 161.756 261.659 162.257 260.942C162.794 260.226 163.242 259.456 163.6 258.633C163.993 257.773 164.28 256.86 164.459 255.894C164.674 254.891 164.781 253.763 164.781 252.51C164.781 250.863 164.549 249.233 164.083 247.622C163.653 245.975 163.027 244.453 162.203 243.057C161.594 242.269 161.183 241.768 160.968 241.553C160.789 241.302 160.646 241.034 160.538 240.747L160.431 240.586Z" fill="#A3383C"/>
<path d="M127.646 240.479L128.988 238.491C129.525 238.026 129.901 237.757 130.116 237.686C130.367 237.578 130.671 237.524 131.029 237.524H131.405L132.157 237.739L132.641 238.169C132.999 238.491 133.303 239.01 133.554 239.727C133.804 240.407 134.019 241.141 134.198 241.929C134.377 242.716 134.521 243.486 134.628 244.238C134.735 244.954 134.843 245.527 134.95 245.957C135.201 247.139 135.398 248.141 135.541 248.965C135.684 249.788 135.81 250.558 135.917 251.274C136.024 251.991 136.132 252.76 136.239 253.584C136.382 254.408 136.579 255.41 136.83 256.592C137.117 258.06 137.367 259.474 137.582 260.835C137.833 262.16 137.958 263.538 137.958 264.971C137.958 266.26 137.725 267.119 137.26 267.549C136.794 267.979 136.203 268.193 135.487 268.193C134.95 268.122 134.503 267.907 134.145 267.549C133.786 267.191 133.59 266.689 133.554 266.045C133.59 265.758 133.607 265.49 133.607 265.239C133.643 264.989 133.661 264.72 133.661 264.434C133.661 263.037 133.5 261.694 133.178 260.405C132.891 259.08 132.605 257.702 132.318 256.27C131.817 253.691 131.423 251.471 131.137 249.609C130.886 247.747 130.546 245.993 130.116 244.346L129.848 244.722C129.167 245.724 128.487 246.781 127.807 247.891C127.126 248.965 126.464 250.039 125.819 251.113C125.211 252.188 124.62 253.208 124.047 254.175C123.51 255.142 123.026 256.001 122.597 256.753C121.952 257.505 121.326 257.881 120.717 257.881C120.144 257.881 119.589 257.594 119.052 257.021C118.55 256.413 118.067 255.661 117.602 254.766C117.136 253.87 116.706 252.922 116.312 251.919C115.954 250.881 115.632 249.95 115.346 249.126L113.681 245.205C113.394 246.566 113.161 248.034 112.982 249.609C112.839 251.149 112.732 252.76 112.66 254.443C112.589 256.09 112.535 257.773 112.499 259.492C112.499 261.211 112.499 262.912 112.499 264.595C112.499 265.239 112.266 265.758 111.801 266.152C111.335 266.546 110.852 266.743 110.351 266.743C109.706 266.743 109.223 266.582 108.9 266.26C108.614 265.938 108.417 265.49 108.31 264.917C108.202 264.344 108.148 263.7 108.148 262.983C108.148 262.231 108.148 261.444 108.148 260.62C108.148 258.149 108.202 255.697 108.31 253.262C108.417 250.827 108.721 248.374 109.223 245.903C109.366 245.438 109.473 244.793 109.545 243.97C109.652 243.11 109.813 242.287 110.028 241.499C110.279 240.711 110.619 240.031 111.049 239.458C111.514 238.849 112.159 238.545 112.982 238.545C113.627 238.545 114.289 238.885 114.97 239.565C115.65 240.21 116.295 241.051 116.903 242.09C117.548 243.128 118.139 244.274 118.676 245.527C119.249 246.781 119.732 248.016 120.126 249.233C120.448 250.308 120.735 250.845 120.985 250.845C120.985 250.845 121.111 250.666 121.361 250.308C121.612 249.95 121.916 249.502 122.274 248.965C122.632 248.392 123.008 247.783 123.402 247.139C123.832 246.458 124.226 245.796 124.584 245.151L127.001 241.445C127.216 241.195 127.431 240.872 127.646 240.479Z" fill="#A3383C"/>
<path d="M88.2002 240.479L89.543 238.491C90.0801 238.026 90.4561 237.757 90.6709 237.686C90.9215 237.578 91.2259 237.524 91.584 237.524H91.96L92.7119 237.739L93.1953 238.169C93.5534 238.491 93.8577 239.01 94.1084 239.727C94.359 240.407 94.5739 241.141 94.7529 241.929C94.932 242.716 95.0752 243.486 95.1826 244.238C95.29 244.954 95.3975 245.527 95.5049 245.957C95.7555 247.139 95.9525 248.141 96.0957 248.965C96.2389 249.788 96.3643 250.558 96.4717 251.274C96.5791 251.991 96.6865 252.76 96.7939 253.584C96.9372 254.408 97.1341 255.41 97.3848 256.592C97.6712 258.06 97.9219 259.474 98.1367 260.835C98.3874 262.16 98.5127 263.538 98.5127 264.971C98.5127 266.26 98.2799 267.119 97.8145 267.549C97.349 267.979 96.7581 268.193 96.042 268.193C95.5049 268.122 95.0573 267.907 94.6992 267.549C94.3411 267.191 94.1442 266.689 94.1084 266.045C94.1442 265.758 94.1621 265.49 94.1621 265.239C94.1979 264.989 94.2158 264.72 94.2158 264.434C94.2158 263.037 94.0547 261.694 93.7324 260.405C93.446 259.08 93.1595 257.702 92.873 256.27C92.3717 253.691 91.9779 251.471 91.6914 249.609C91.4408 247.747 91.1006 245.993 90.6709 244.346L90.4023 244.722C89.722 245.724 89.0417 246.781 88.3613 247.891C87.681 248.965 87.0186 250.039 86.374 251.113C85.7653 252.188 85.1745 253.208 84.6016 254.175C84.0645 255.142 83.5811 256.001 83.1514 256.753C82.5068 257.505 81.8802 257.881 81.2715 257.881C80.6986 257.881 80.1436 257.594 79.6064 257.021C79.1051 256.413 78.6217 255.661 78.1562 254.766C77.6908 253.87 77.2611 252.922 76.8672 251.919C76.5091 250.881 76.1868 249.95 75.9004 249.126L74.2354 245.205C73.9489 246.566 73.7161 248.034 73.5371 249.609C73.3939 251.149 73.2865 252.76 73.2148 254.443C73.1432 256.09 73.0895 257.773 73.0537 259.492C73.0537 261.211 73.0537 262.912 73.0537 264.595C73.0537 265.239 72.821 265.758 72.3555 266.152C71.89 266.546 71.4066 266.743 70.9053 266.743C70.2607 266.743 69.7773 266.582 69.4551 266.26C69.1686 265.938 68.9717 265.49 68.8643 264.917C68.7568 264.344 68.7031 263.7 68.7031 262.983C68.7031 262.231 68.7031 261.444 68.7031 260.62C68.7031 258.149 68.7568 255.697 68.8643 253.262C68.9717 250.827 69.276 248.374 69.7773 245.903C69.9206 245.438 70.028 244.793 70.0996 243.97C70.207 243.11 70.3682 242.287 70.583 241.499C70.8337 240.711 71.1738 240.031 71.6035 239.458C72.069 238.849 72.7135 238.545 73.5371 238.545C74.1816 238.545 74.8441 238.885 75.5244 239.565C76.2048 240.21 76.8493 241.051 77.458 242.09C78.1025 243.128 78.6934 244.274 79.2305 245.527C79.8034 246.781 80.2868 248.016 80.6807 249.233C81.0029 250.308 81.2894 250.845 81.54 250.845C81.54 250.845 81.6654 250.666 81.916 250.308C82.1667 249.95 82.471 249.502 82.8291 248.965C83.1872 248.392 83.5632 247.783 83.957 247.139C84.3867 246.458 84.7806 245.796 85.1387 245.151L87.5557 241.445C87.7705 241.195 87.9854 240.872 88.2002 240.479Z" fill="#A3383C"/>
<path d="M42.4707 268.677C41.6829 268.641 41.1279 268.372 40.8057 267.871C40.4834 267.37 40.3223 266.868 40.3223 266.367C40.3223 265.866 40.5192 265.4 40.9131 264.971C41.307 264.541 41.862 264.326 42.5781 264.326L46.8213 264.111L46.7676 263.467C46.7676 261.82 46.7497 260.387 46.7139 259.17C46.7139 257.917 46.696 256.771 46.6602 255.732C46.6243 254.658 46.5885 253.656 46.5527 252.725C46.5169 251.758 46.4632 250.755 46.3916 249.717C46.3558 248.643 46.32 247.479 46.2842 246.226C46.2484 244.972 46.2126 243.522 46.1768 241.875C46.1768 241.732 46.1768 241.624 46.1768 241.553C46.2126 241.481 46.2305 241.41 46.2305 241.338C46.2305 241.266 46.2126 241.23 46.1768 241.23C45.6396 241.266 45.0309 241.284 44.3506 241.284C43.7061 241.284 42.972 241.284 42.1484 241.284C41.3607 241.213 40.8057 240.944 40.4834 240.479C40.1611 239.977 40 239.458 40 238.921C40 238.42 40.1969 237.954 40.5908 237.524C40.9847 237.095 41.486 236.88 42.0947 236.88C44.1357 236.88 46.0872 236.844 47.9492 236.772C49.8112 236.665 51.709 236.611 53.6426 236.611C54.2513 236.826 54.7347 237.131 55.0928 237.524C55.4508 237.918 55.6299 238.33 55.6299 238.76C55.6299 239.44 55.415 239.941 54.9854 240.264C54.5915 240.55 54.1081 240.765 53.5352 240.908C52.998 241.016 52.4251 241.069 51.8164 241.069C51.2435 241.034 50.778 241.034 50.4199 241.069H50.3662C50.3662 241.141 50.3841 241.23 50.4199 241.338C50.4557 241.41 50.5094 241.535 50.5811 241.714C50.6169 243.361 50.6527 244.811 50.6885 246.064C50.7243 247.318 50.7601 248.481 50.7959 249.556C50.8675 250.594 50.9212 251.597 50.957 252.563C50.9928 253.53 51.0286 254.551 51.0645 255.625C51.1003 256.663 51.1182 257.827 51.1182 259.116C51.154 260.369 51.1719 261.82 51.1719 263.467V263.843C51.888 263.807 52.6221 263.789 53.374 263.789C54.1618 263.753 54.9854 263.735 55.8447 263.735C56.4535 263.914 56.9189 264.201 57.2412 264.595C57.5993 264.989 57.7783 265.418 57.7783 265.884C57.7067 266.385 57.5098 266.851 57.1875 267.28C56.8652 267.674 56.3818 267.943 55.7373 268.086C53.4814 268.086 51.2614 268.158 49.0771 268.301C46.9287 268.444 44.7266 268.569 42.4707 268.677Z" fill="#A3383C"/>
<path fill-rule="evenodd" clip-rule="evenodd" d="M242.298 74.4091L242.42 76.8303C243.006 88.4094 238.581 100.155 229.317 108.544C224.705 112.721 219.381 115.624 213.781 117.269C215.978 126.396 217.256 134.455 216.124 144.058L216.121 144.084L215.559 147.986C215.559 147.987 215.559 147.987 215.559 147.987C212.951 166.302 202.668 183.373 188.073 196.591C164.158 218.249 130.919 223.071 102.875 211.794L104.246 207.872C123.053 213.521 144.689 208.496 160.408 194.26C172.999 182.858 179.53 171.309 180.494 155.796L180.072 155.752C165.104 154.203 150.299 147.441 139.341 135.327C128.459 123.296 123.042 108.224 122.944 93.1851L122.913 88.5451L127.526 89.0225C142.54 90.5761 157.068 97.4752 167.997 109.558L164.916 112.348C155.716 102.177 143.794 95.9392 131.264 93.7396C129.882 93.4971 128.493 93.3037 127.1 93.1595C127.109 94.5611 127.168 95.9629 127.276 97.3621C128.252 109.995 133.266 122.414 142.422 132.536C151.624 142.709 163.759 148.858 176.335 151.039C177.718 151.279 179.107 151.471 180.498 151.615C180.489 150.212 180.428 148.81 180.315 147.412C179.296 134.798 174.071 122.47 164.916 112.348L167.997 109.558C178.839 121.545 184.556 136.492 184.655 151.59L184.685 156.23L184.632 156.224C183.549 172.965 176.36 185.424 163.198 197.344C153.66 205.982 142.045 211.466 130.064 213.458C149.668 214.293 169.592 207.718 185.283 193.507C199.314 180.8 209 164.564 211.444 147.398L211.445 147.395L211.999 143.543C213.043 134.654 211.886 127.152 209.738 118.231C196.564 120.65 182.468 116.392 172.811 105.716C162.066 93.8364 159.769 77.2763 165.542 63.4178L165.547 63.4045L166.821 60.4621L168.764 61.3851C170.842 62.3723 172.887 63.4505 174.891 64.6195L174.903 64.6264L175.818 65.1682C182.629 69.2607 188.959 74.4114 194.562 80.6058C201.592 88.3783 206.874 97.1258 210.428 106.362L210.433 106.375L210.808 107.37C211.525 109.308 212.166 111.267 212.732 113.242C217.7 111.762 222.424 109.176 226.528 105.46C234.192 98.5187 238.161 89.0183 238.311 79.4259C236.457 79.7312 234.605 79.9504 232.76 80.0861L232.751 80.0867L231.694 80.1552L231.685 80.1558C211.836 81.2691 192.862 72.7532 180.413 57.8846L180.406 57.8764L179.73 57.0515L179.729 57.0525C179.687 57.0016 179.646 56.9507 179.605 56.8996C178.409 55.4096 177.277 53.8588 176.215 52.2502L174.408 50.2537C174.504 50.1675 175.805 49.0034 175.895 48.9232C175.954 48.8707 176.014 48.818 176.073 48.7656L176.094 48.747L176.116 48.7289C177.501 47.5773 179.258 46.2781 180.957 45.112C181.65 44.6368 182.338 44.1801 182.994 43.761L183.152 43.6598L184.207 43.2278C201.545 35.3457 219.476 38.1828 231.961 51.8254L231.969 51.8335L231.976 51.8418C232.507 52.4348 233.025 53.0353 233.529 53.6431L233.536 53.6518L233.543 53.6604C236.803 57.6792 239.165 62.1652 240.637 66.8583L241.318 69.0319L239.094 69.513C236.443 70.0862 233.79 70.4491 231.153 70.612L231.142 70.6127L230.041 70.6689L230.03 70.6694C213.936 71.3189 198.594 64.5404 188.189 52.763L186.333 50.6618L188.88 49.495C201.077 43.9088 215.983 46.5577 225.469 57.046L222.388 59.8363C214.852 51.5048 203.372 48.8647 193.357 52.1952C202.853 61.6958 216.058 67.0675 229.85 66.5141C229.853 66.514 229.857 66.5138 229.861 66.5137L230.896 66.4608C230.899 66.4606 230.903 66.4604 230.907 66.4601C232.564 66.3574 234.229 66.1687 235.897 65.891C234.581 62.4961 232.726 59.2533 230.324 56.2902C229.858 55.7288 229.38 55.1738 228.889 54.6257C217.744 42.4538 201.786 39.7907 185.893 47.0302L185.857 47.0469L185.076 47.3666C184.508 47.732 183.912 48.1286 183.309 48.5423C182.253 49.267 181.189 50.035 180.229 50.7707C181.057 51.9796 181.928 53.1522 182.839 54.2872C182.841 54.2899 182.843 54.2926 182.845 54.2954L183.599 55.2143C183.601 55.217 183.603 55.2198 183.605 55.2225C195.226 69.0968 212.934 77.0388 231.442 76.0037C231.445 76.0035 231.448 76.0033 231.451 76.0032L232.454 75.9382C232.457 75.9379 232.46 75.9377 232.463 75.9375C234.941 75.7549 237.433 75.4108 239.925 74.8976L242.298 74.4091ZM208.682 114.195C196.954 116.245 184.469 112.407 175.892 102.926C166.547 92.5939 164.328 78.3059 168.945 66.1085C170.244 66.7706 171.527 67.4709 172.794 68.2094C172.796 68.2105 172.798 68.2116 172.8 68.2127L173.68 68.7337C173.682 68.7349 173.684 68.7361 173.686 68.7373C180.147 72.6209 186.156 77.5102 191.48 83.3962C198.16 90.781 203.173 99.0847 206.546 107.848C206.547 107.85 206.548 107.853 206.549 107.855L206.91 108.812C206.911 108.815 206.912 108.817 206.913 108.819C207.569 110.594 208.159 112.388 208.682 114.195Z" fill="#A3383C"/>
</svg>
