<svg width="110" height="110" viewBox="0 0 110 110" fill="none" xmlns="http://www.w3.org/2000/svg">
<path d="M0 0H110V110H0V0Z" fill="#F4BA97"/>
<path opacity="0.6" d="M64.0506 93.9529H69.0249V94.5353H64.0506V93.9529ZM65.8057 95.8132H68.1271V96.3794H65.8057V95.8132ZM66.2344 92.5294H66.833V94.1794H66.2344V92.5294ZM67.9653 95.8132H68.5719C68.5719 95.8132 68.5719 96.0074 68.5638 96.0963C68.4587 98.4904 68.3697 99.364 68.1109 99.6552C67.9491 99.8493 67.7874 99.914 67.5285 99.9302C67.2859 99.9463 66.841 99.9463 66.3881 99.9221C66.38 99.736 66.3072 99.4853 66.194 99.3235C66.6631 99.364 67.108 99.364 67.2778 99.364C67.4234 99.364 67.5124 99.3559 67.5852 99.2669C67.7793 99.0728 67.8763 98.2154 67.9653 95.9184V95.8132ZM61.6727 94.5677H64.269V95.1419H61.6727V94.5677ZM62.708 92.6427H63.2984V98.0213H62.708V92.6427ZM61.5352 98.1507C62.2469 97.9162 63.3146 97.536 64.3499 97.1478L64.4631 97.714C63.5087 98.086 62.4896 98.4743 61.7212 98.7735L61.5352 98.1507ZM65.5146 94.2684H66.1212V95.6919C66.1212 97.075 65.8704 98.7574 64.0263 99.9787C63.9212 99.8493 63.719 99.6794 63.5653 99.5662C65.3124 98.4096 65.5146 96.8647 65.5146 95.6838V94.2684Z" fill="white"/>
<path opacity="0.6" d="M51.1982 93.0632H58.3724V93.5243H51.1982V93.0632ZM51.1577 98.3287H58.3886V98.725H51.1577V98.3287ZM51.6996 94.1794H54.393V94.5353H51.6996V94.1794ZM54.9673 94.5353H57.3129V94.9882H54.9673V94.5353ZM52.1768 97.5279H57.4261V97.9243H52.1768V97.5279ZM51.6107 96.1449H54.5224V96.5007H51.6107V96.1449ZM51.3033 94.8669H54.7651V95.2309H51.3033V94.8669ZM53.1232 92.5294H53.7136V93.8882H53.1232V92.5294ZM52.7915 93.9125H53.3173V95.1096H52.7915V93.9125ZM52.7996 95.7324H53.3173V97.0912H52.7996V95.7324ZM55.8246 92.5294H56.4151V93.8882H55.8246V92.5294ZM51.6107 99.5177C52.9452 99.4691 55.1533 99.3721 57.2562 99.275L57.2401 99.6632C55.218 99.7765 53.0665 99.8978 51.6754 99.9544L51.6107 99.5177ZM51.271 96.9779C52.1283 96.9375 53.4548 96.8647 54.7489 96.7757V97.1316C53.5033 97.2287 52.2173 97.3257 51.3114 97.3824L51.271 96.9779ZM52.2577 95.0529H52.6702C52.5812 95.6353 52.2658 95.9265 51.4327 96.0963C51.3923 95.9993 51.279 95.8456 51.1901 95.7809C51.9261 95.6677 52.1849 95.4735 52.2577 95.0529ZM57.046 94.5353H57.5474V96.5169C57.5474 96.6787 57.5474 96.7677 57.5798 96.7919C57.604 96.8243 57.6364 96.8324 57.6849 96.8324C57.7335 96.8324 57.8143 96.8324 57.871 96.8324C57.9276 96.8324 57.9842 96.8243 58.0165 96.8C58.0489 96.7838 58.0732 96.7272 58.0812 96.6302C58.0974 96.5331 58.1055 96.3066 58.1136 96.0154C58.2107 96.0963 58.3643 96.1691 58.4857 96.2096C58.4776 96.4927 58.4533 96.8324 58.4129 96.9456C58.3805 97.0669 58.3077 97.1397 58.2187 97.1882C58.146 97.2449 58.0085 97.261 57.8952 97.261C57.8143 97.261 57.6445 97.261 57.5717 97.261C57.4261 97.261 57.2724 97.2206 57.1754 97.1316C57.0783 97.0346 57.046 96.9213 57.046 96.4927V94.5353ZM55.7923 98.9677L56.2048 98.7007C56.8761 98.9757 57.6849 99.461 58.1055 99.8007L57.6849 100.108C57.2724 99.7441 56.4717 99.2507 55.7923 98.9677ZM53.3011 95.0529H53.7055V95.4654C53.7055 95.5949 53.7217 95.611 53.8511 95.611C53.9158 95.611 54.207 95.611 54.2879 95.611C54.4011 95.611 54.4335 95.5787 54.4496 95.3441C54.5224 95.4007 54.668 95.4412 54.7812 95.4735C54.7489 95.8213 54.6276 95.9184 54.3526 95.9184C54.2717 95.9184 53.8835 95.9184 53.8026 95.9184C53.3982 95.9184 53.3011 95.8375 53.3011 95.4654V95.0529ZM53.3577 98.4581L53.8996 98.6279C53.6408 99.0162 53.3415 99.4287 53.0908 99.7118L52.6621 99.5581C52.9048 99.2588 53.204 98.7816 53.3577 98.4581ZM54.8702 95.5949L55.1695 95.2471C55.7842 95.4978 56.5283 95.9346 56.8923 96.2904L56.5768 96.6787C56.221 96.3228 55.5011 95.8699 54.8702 95.5949ZM55.8974 93.9853H56.3746V94.7375C56.3746 95.5706 56.2129 96.6382 54.943 97.4228C54.8702 97.3257 54.7004 97.1721 54.579 97.0831C55.7518 96.3713 55.8974 95.4169 55.8974 94.7294V93.9853Z" fill="white"/>
<path opacity="0.6" d="M42.6414 94.7132L43.2399 94.8993C42.6738 96.0235 41.8002 97.0993 40.9429 97.7949C40.8377 97.6897 40.587 97.4713 40.4414 97.3743C41.3149 96.7434 42.1399 95.7485 42.6414 94.7132ZM44.3561 94.786H44.9546V98.8787C44.9546 99.2184 45.0355 99.2831 45.448 99.2831C45.6502 99.2831 46.6532 99.2831 46.912 99.2831C47.3002 99.2831 47.3649 99.0728 47.4135 98.0294C47.551 98.1346 47.8017 98.2397 47.9635 98.2802C47.8826 99.5015 47.7046 99.8574 46.9443 99.8574C46.7664 99.8574 45.5774 99.8574 45.3995 99.8574C44.5826 99.8574 44.3561 99.6471 44.3561 98.8706V94.786ZM47.1627 95.4897L47.6318 95.9507C46.8716 96.4522 45.7635 96.9456 44.7848 97.3419C44.7524 97.2125 44.6473 97.0103 44.5664 96.889C45.5046 96.5007 46.5561 95.9588 47.1627 95.4897ZM40.7002 93.2735H47.8179V93.8559H40.7002V93.2735ZM42.6495 92.5294H43.248V94.7132H42.6495V92.5294ZM45.3024 92.5294H45.901V94.7618H45.3024V92.5294ZM41.9701 96.25L42.5605 95.6515V95.6596V99.9706H41.9701V96.25Z" fill="white"/>
<path opacity="0.6" d="M64.0506 93.9529H69.0249V94.5353H64.0506V93.9529ZM65.8057 95.8132H68.1271V96.3794H65.8057V95.8132ZM66.2344 92.5294H66.833V94.1794H66.2344V92.5294ZM67.9653 95.8132H68.5719C68.5719 95.8132 68.5719 96.0074 68.5638 96.0963C68.4587 98.4904 68.3697 99.364 68.1109 99.6552C67.9491 99.8493 67.7874 99.914 67.5285 99.9302C67.2859 99.9463 66.841 99.9463 66.3881 99.9221C66.38 99.736 66.3072 99.4853 66.194 99.3235C66.6631 99.364 67.108 99.364 67.2778 99.364C67.4234 99.364 67.5124 99.3559 67.5852 99.2669C67.7793 99.0728 67.8763 98.2154 67.9653 95.9184V95.8132ZM61.6727 94.5677H64.269V95.1419H61.6727V94.5677ZM62.708 92.6427H63.2984V98.0213H62.708V92.6427ZM61.5352 98.1507C62.2469 97.9162 63.3146 97.536 64.3499 97.1478L64.4631 97.714C63.5087 98.086 62.4896 98.4743 61.7212 98.7735L61.5352 98.1507ZM65.5146 94.2684H66.1212V95.6919C66.1212 97.075 65.8704 98.7574 64.0263 99.9787C63.9212 99.8493 63.719 99.6794 63.5653 99.5662C65.3124 98.4096 65.5146 96.8647 65.5146 95.6838V94.2684Z" fill="#214F2A"/>
<path opacity="0.6" d="M51.1982 93.0632H58.3724V93.5243H51.1982V93.0632ZM51.1577 98.3287H58.3886V98.725H51.1577V98.3287ZM51.6996 94.1794H54.393V94.5353H51.6996V94.1794ZM54.9673 94.5353H57.3129V94.9882H54.9673V94.5353ZM52.1768 97.5279H57.4261V97.9243H52.1768V97.5279ZM51.6107 96.1449H54.5224V96.5007H51.6107V96.1449ZM51.3033 94.8669H54.7651V95.2309H51.3033V94.8669ZM53.1232 92.5294H53.7136V93.8882H53.1232V92.5294ZM52.7915 93.9125H53.3173V95.1096H52.7915V93.9125ZM52.7996 95.7324H53.3173V97.0912H52.7996V95.7324ZM55.8246 92.5294H56.4151V93.8882H55.8246V92.5294ZM51.6107 99.5177C52.9452 99.4691 55.1533 99.3721 57.2562 99.275L57.2401 99.6632C55.218 99.7765 53.0665 99.8978 51.6754 99.9544L51.6107 99.5177ZM51.271 96.9779C52.1283 96.9375 53.4548 96.8647 54.7489 96.7757V97.1316C53.5033 97.2287 52.2173 97.3257 51.3114 97.3824L51.271 96.9779ZM52.2577 95.0529H52.6702C52.5812 95.6353 52.2658 95.9265 51.4327 96.0963C51.3923 95.9993 51.279 95.8456 51.1901 95.7809C51.9261 95.6677 52.1849 95.4735 52.2577 95.0529ZM57.046 94.5353H57.5474V96.5169C57.5474 96.6787 57.5474 96.7677 57.5798 96.7919C57.604 96.8243 57.6364 96.8324 57.6849 96.8324C57.7335 96.8324 57.8143 96.8324 57.871 96.8324C57.9276 96.8324 57.9842 96.8243 58.0165 96.8C58.0489 96.7838 58.0732 96.7272 58.0812 96.6302C58.0974 96.5331 58.1055 96.3066 58.1136 96.0154C58.2107 96.0963 58.3643 96.1691 58.4857 96.2096C58.4776 96.4927 58.4533 96.8324 58.4129 96.9456C58.3805 97.0669 58.3077 97.1397 58.2187 97.1882C58.146 97.2449 58.0085 97.261 57.8952 97.261C57.8143 97.261 57.6445 97.261 57.5717 97.261C57.4261 97.261 57.2724 97.2206 57.1754 97.1316C57.0783 97.0346 57.046 96.9213 57.046 96.4927V94.5353ZM55.7923 98.9677L56.2048 98.7007C56.8761 98.9757 57.6849 99.461 58.1055 99.8007L57.6849 100.108C57.2724 99.7441 56.4717 99.2507 55.7923 98.9677ZM53.3011 95.0529H53.7055V95.4654C53.7055 95.5949 53.7217 95.611 53.8511 95.611C53.9158 95.611 54.207 95.611 54.2879 95.611C54.4011 95.611 54.4335 95.5787 54.4496 95.3441C54.5224 95.4007 54.668 95.4412 54.7812 95.4735C54.7489 95.8213 54.6276 95.9184 54.3526 95.9184C54.2717 95.9184 53.8835 95.9184 53.8026 95.9184C53.3982 95.9184 53.3011 95.8375 53.3011 95.4654V95.0529ZM53.3577 98.4581L53.8996 98.6279C53.6408 99.0162 53.3415 99.4287 53.0908 99.7118L52.6621 99.5581C52.9048 99.2588 53.204 98.7816 53.3577 98.4581ZM54.8702 95.5949L55.1695 95.2471C55.7842 95.4978 56.5283 95.9346 56.8923 96.2904L56.5768 96.6787C56.221 96.3228 55.5011 95.8699 54.8702 95.5949ZM55.8974 93.9853H56.3746V94.7375C56.3746 95.5706 56.2129 96.6382 54.943 97.4228C54.8702 97.3257 54.7004 97.1721 54.579 97.0831C55.7518 96.3713 55.8974 95.4169 55.8974 94.7294V93.9853Z" fill="#214F2A"/>
<path opacity="0.6" d="M42.6414 94.7132L43.2399 94.8993C42.6738 96.0235 41.8002 97.0993 40.9429 97.7949C40.8377 97.6897 40.587 97.4713 40.4414 97.3743C41.3149 96.7434 42.1399 95.7485 42.6414 94.7132ZM44.3561 94.786H44.9546V98.8787C44.9546 99.2184 45.0355 99.2831 45.448 99.2831C45.6502 99.2831 46.6532 99.2831 46.912 99.2831C47.3002 99.2831 47.3649 99.0728 47.4135 98.0294C47.551 98.1346 47.8017 98.2397 47.9635 98.2802C47.8826 99.5015 47.7046 99.8574 46.9443 99.8574C46.7664 99.8574 45.5774 99.8574 45.3995 99.8574C44.5826 99.8574 44.3561 99.6471 44.3561 98.8706V94.786ZM47.1627 95.4897L47.6318 95.9507C46.8716 96.4522 45.7635 96.9456 44.7848 97.3419C44.7524 97.2125 44.6473 97.0103 44.5664 96.889C45.5046 96.5007 46.5561 95.9588 47.1627 95.4897ZM40.7002 93.2735H47.8179V93.8559H40.7002V93.2735ZM42.6495 92.5294H43.248V94.7132H42.6495V92.5294ZM45.3024 92.5294H45.901V94.7618H45.3024V92.5294ZM41.9701 96.25L42.5605 95.6515V95.6596V99.9706H41.9701V96.25Z" fill="#214F2A"/>
<path opacity="0.6" d="M64.0506 93.9529H69.0249V94.5353H64.0506V93.9529ZM65.8057 95.8132H68.1271V96.3794H65.8057V95.8132ZM66.2344 92.5294H66.833V94.1794H66.2344V92.5294ZM67.9653 95.8132H68.5719C68.5719 95.8132 68.5719 96.0074 68.5638 96.0963C68.4587 98.4904 68.3697 99.364 68.1109 99.6552C67.9491 99.8493 67.7874 99.914 67.5285 99.9302C67.2859 99.9463 66.841 99.9463 66.3881 99.9221C66.38 99.736 66.3072 99.4853 66.194 99.3235C66.6631 99.364 67.108 99.364 67.2778 99.364C67.4234 99.364 67.5124 99.3559 67.5852 99.2669C67.7793 99.0728 67.8763 98.2154 67.9653 95.9184V95.8132ZM61.6727 94.5677H64.269V95.1419H61.6727V94.5677ZM62.708 92.6427H63.2984V98.0213H62.708V92.6427ZM61.5352 98.1507C62.2469 97.9162 63.3146 97.536 64.3499 97.1478L64.4631 97.714C63.5087 98.086 62.4896 98.4743 61.7212 98.7735L61.5352 98.1507ZM65.5146 94.2684H66.1212V95.6919C66.1212 97.075 65.8704 98.7574 64.0263 99.9787C63.9212 99.8493 63.719 99.6794 63.5653 99.5662C65.3124 98.4096 65.5146 96.8647 65.5146 95.6838V94.2684Z" fill="#214F2A"/>
<path opacity="0.6" d="M51.1982 93.0632H58.3724V93.5243H51.1982V93.0632ZM51.1577 98.3287H58.3886V98.725H51.1577V98.3287ZM51.6996 94.1794H54.393V94.5353H51.6996V94.1794ZM54.9673 94.5353H57.3129V94.9882H54.9673V94.5353ZM52.1768 97.5279H57.4261V97.9243H52.1768V97.5279ZM51.6107 96.1449H54.5224V96.5007H51.6107V96.1449ZM51.3033 94.8669H54.7651V95.2309H51.3033V94.8669ZM53.1232 92.5294H53.7136V93.8882H53.1232V92.5294ZM52.7915 93.9125H53.3173V95.1096H52.7915V93.9125ZM52.7996 95.7324H53.3173V97.0912H52.7996V95.7324ZM55.8246 92.5294H56.4151V93.8882H55.8246V92.5294ZM51.6107 99.5177C52.9452 99.4691 55.1533 99.3721 57.2562 99.275L57.2401 99.6632C55.218 99.7765 53.0665 99.8978 51.6754 99.9544L51.6107 99.5177ZM51.271 96.9779C52.1283 96.9375 53.4548 96.8647 54.7489 96.7757V97.1316C53.5033 97.2287 52.2173 97.3257 51.3114 97.3824L51.271 96.9779ZM52.2577 95.0529H52.6702C52.5812 95.6353 52.2658 95.9265 51.4327 96.0963C51.3923 95.9993 51.279 95.8456 51.1901 95.7809C51.9261 95.6677 52.1849 95.4735 52.2577 95.0529ZM57.046 94.5353H57.5474V96.5169C57.5474 96.6787 57.5474 96.7677 57.5798 96.7919C57.604 96.8243 57.6364 96.8324 57.6849 96.8324C57.7335 96.8324 57.8143 96.8324 57.871 96.8324C57.9276 96.8324 57.9842 96.8243 58.0165 96.8C58.0489 96.7838 58.0732 96.7272 58.0812 96.6302C58.0974 96.5331 58.1055 96.3066 58.1136 96.0154C58.2107 96.0963 58.3643 96.1691 58.4857 96.2096C58.4776 96.4927 58.4533 96.8324 58.4129 96.9456C58.3805 97.0669 58.3077 97.1397 58.2187 97.1882C58.146 97.2449 58.0085 97.261 57.8952 97.261C57.8143 97.261 57.6445 97.261 57.5717 97.261C57.4261 97.261 57.2724 97.2206 57.1754 97.1316C57.0783 97.0346 57.046 96.9213 57.046 96.4927V94.5353ZM55.7923 98.9677L56.2048 98.7007C56.8761 98.9757 57.6849 99.461 58.1055 99.8007L57.6849 100.108C57.2724 99.7441 56.4717 99.2507 55.7923 98.9677ZM53.3011 95.0529H53.7055V95.4654C53.7055 95.5949 53.7217 95.611 53.8511 95.611C53.9158 95.611 54.207 95.611 54.2879 95.611C54.4011 95.611 54.4335 95.5787 54.4496 95.3441C54.5224 95.4007 54.668 95.4412 54.7812 95.4735C54.7489 95.8213 54.6276 95.9184 54.3526 95.9184C54.2717 95.9184 53.8835 95.9184 53.8026 95.9184C53.3982 95.9184 53.3011 95.8375 53.3011 95.4654V95.0529ZM53.3577 98.4581L53.8996 98.6279C53.6408 99.0162 53.3415 99.4287 53.0908 99.7118L52.6621 99.5581C52.9048 99.2588 53.204 98.7816 53.3577 98.4581ZM54.8702 95.5949L55.1695 95.2471C55.7842 95.4978 56.5283 95.9346 56.8923 96.2904L56.5768 96.6787C56.221 96.3228 55.5011 95.8699 54.8702 95.5949ZM55.8974 93.9853H56.3746V94.7375C56.3746 95.5706 56.2129 96.6382 54.943 97.4228C54.8702 97.3257 54.7004 97.1721 54.579 97.0831C55.7518 96.3713 55.8974 95.4169 55.8974 94.7294V93.9853Z" fill="#214F2A"/>
<path opacity="0.6" d="M42.6414 94.7132L43.2399 94.8993C42.6738 96.0235 41.8002 97.0993 40.9429 97.7949C40.8377 97.6897 40.587 97.4713 40.4414 97.3743C41.3149 96.7434 42.1399 95.7485 42.6414 94.7132ZM44.3561 94.786H44.9546V98.8787C44.9546 99.2184 45.0355 99.2831 45.448 99.2831C45.6502 99.2831 46.6532 99.2831 46.912 99.2831C47.3002 99.2831 47.3649 99.0728 47.4135 98.0294C47.551 98.1346 47.8017 98.2397 47.9635 98.2802C47.8826 99.5015 47.7046 99.8574 46.9443 99.8574C46.7664 99.8574 45.5774 99.8574 45.3995 99.8574C44.5826 99.8574 44.3561 99.6471 44.3561 98.8706V94.786ZM47.1627 95.4897L47.6318 95.9507C46.8716 96.4522 45.7635 96.9456 44.7848 97.3419C44.7524 97.2125 44.6473 97.0103 44.5664 96.889C45.5046 96.5007 46.5561 95.9588 47.1627 95.4897ZM40.7002 93.2735H47.8179V93.8559H40.7002V93.2735ZM42.6495 92.5294H43.248V94.7132H42.6495V92.5294ZM45.3024 92.5294H45.901V94.7618H45.3024V92.5294ZM41.9701 96.25L42.5605 95.6515V95.6596V99.9706H41.9701V96.25Z" fill="#214F2A"/>
<path d="M88.8931 77.0547C88.9394 76.8345 89.0205 76.6724 89.1363 76.5681C89.2638 76.4638 89.4144 76.4001 89.5881 76.377C89.9009 76.377 90.1326 76.5855 90.2832 77.0025C90.4338 78.4622 90.5555 79.9103 90.6482 81.3468C90.7524 82.7833 90.932 84.1677 91.1868 85.4999C91.5923 85.4999 92.0036 85.5057 92.4206 85.5173C92.8492 85.5173 93.2837 85.5173 93.7239 85.5173C94.4653 85.5173 95.2125 85.4999 95.9655 85.4652C96.1972 85.5347 96.3652 85.6389 96.4695 85.7779C96.5737 85.9054 96.6259 86.0444 96.6259 86.195C96.6027 86.3688 96.539 86.5194 96.4347 86.6468C96.3305 86.7742 96.1683 86.8553 95.9482 86.8901C95.3573 86.9132 94.7607 86.9538 94.1583 87.0117C93.5675 87.0812 92.9767 87.116 92.3859 87.116C92.1889 87.116 91.963 87.1102 91.7082 87.0986C91.4649 87.087 91.2274 87.0581 90.9957 87.0117C90.764 86.9654 90.5497 86.8959 90.3527 86.8032C90.1558 86.7105 90.011 86.5831 89.9183 86.4209C89.7677 85.7837 89.6577 85.164 89.5881 84.5616C89.5186 83.9476 89.4549 83.3278 89.397 82.7022C89.2927 81.7638 89.2059 80.8255 89.1363 79.8871C89.0668 78.9488 88.9857 78.0046 88.8931 77.0547Z" fill="#214F2A"/>
<path d="M80.3188 83.3625C80.2609 83.351 80.2087 83.3452 80.1624 83.3452C80.1392 83.3452 80.0813 83.4321 79.9886 83.6058C79.8959 83.768 79.7859 83.9592 79.6585 84.1793C79.5426 84.3878 79.4268 84.6021 79.3109 84.8222C79.1951 85.0307 79.1082 85.1813 79.0503 85.274C78.8649 85.4941 78.6564 85.6042 78.4247 85.6042C78.2509 85.6042 78.1003 85.5463 77.9729 85.4304C77.8455 85.303 77.7817 85.1234 77.7817 84.8917C77.7817 84.7991 77.7875 84.7238 77.7991 84.6658C78.1814 83.9939 78.5463 83.3336 78.8939 82.6848C79.2414 82.0361 79.6005 81.3931 79.9712 80.756C80.3535 80.1188 80.7532 79.499 81.1703 78.8966C81.5873 78.2827 82.0565 77.686 82.5778 77.1068C82.6589 77.0141 82.7458 76.9562 82.8385 76.933C82.9311 76.8983 83.018 76.8751 83.0991 76.8635C83.2729 76.8635 83.4177 76.9272 83.5335 77.0547C83.661 77.1821 83.7363 77.3385 83.7594 77.5239C83.7247 77.6513 83.6841 77.7382 83.6378 77.7845L83.7768 77.715C83.9274 77.715 84.0838 77.7555 84.246 77.8366C84.4198 77.9177 84.5414 78.0741 84.6109 78.3058C84.7036 78.9546 84.8137 79.5859 84.9411 80.1999C85.0685 80.8023 85.1902 81.4105 85.306 82.0245C85.4334 82.6269 85.5435 83.2351 85.6362 83.8491C85.7404 84.4631 85.8042 85.1003 85.8273 85.7606C85.8273 85.9923 85.7578 86.1718 85.6188 86.2993C85.4798 86.4151 85.3292 86.473 85.167 86.473C84.9932 86.473 84.8252 86.4209 84.6631 86.3166C84.5125 86.2124 84.4256 86.0328 84.4024 85.778C84.3792 84.967 84.3097 84.2024 84.1939 83.4842C84.1707 83.5074 84.107 83.5247 84.0027 83.5363C83.3772 83.5363 82.7516 83.5074 82.126 83.4494C81.512 83.3915 80.9096 83.3625 80.3188 83.3625ZM80.927 81.9724C81.344 81.9956 81.8306 82.0245 82.3867 82.0593C82.9427 82.094 83.4525 82.1114 83.9158 82.1114H83.9332L83.9158 82.0245C83.8811 81.9087 83.8405 81.7407 83.7942 81.5206C83.7479 81.3005 83.6957 81.063 83.6378 80.8081C83.5915 80.5533 83.5393 80.2926 83.4814 80.0262C83.4351 79.7481 83.3887 79.499 83.3424 79.2789C83.2961 79.0588 83.2555 78.8793 83.2208 78.7402C83.1976 78.6012 83.186 78.5317 83.186 78.5317C83.0817 78.6244 82.9369 78.7924 82.7516 79.0357C82.5894 79.2442 82.3809 79.5512 82.126 79.9566C81.8711 80.3505 81.5526 80.8892 81.1703 81.5727L80.927 81.9724Z" fill="#214F2A"/>
<path d="M72.0754 78.3058C72.0406 79.5454 72.0232 80.8255 72.0232 82.1461V86.2124C72.0232 86.4209 71.9479 86.5889 71.7973 86.7163C71.6583 86.8437 71.5077 86.9074 71.3455 86.9074C71.1833 86.9074 71.0212 86.8495 70.859 86.7337C70.7084 86.6294 70.6215 86.4441 70.5983 86.1776V82.1809C70.5983 80.895 70.6157 79.6496 70.6504 78.4448C70.0944 78.5027 69.5962 78.5549 69.156 78.6012C68.7158 78.636 68.3277 78.6765 67.9918 78.7228C67.7601 78.6997 67.5805 78.6186 67.4531 78.4796C67.3372 78.3405 67.2793 78.1726 67.2793 77.9756C67.2793 77.7555 67.3836 77.5875 67.5921 77.4717C67.8006 77.3558 68.0786 77.269 68.4262 77.211C68.7737 77.1415 69.1734 77.0952 69.6252 77.072C70.0886 77.0489 70.5751 77.0141 71.0849 76.9678C71.7915 76.9098 72.4171 76.8635 72.9616 76.8287C73.5061 76.794 73.9753 76.7766 74.3691 76.7766C74.7862 76.9272 74.9947 77.1589 74.9947 77.4717C74.96 77.715 74.8557 77.8887 74.6819 77.993C74.5197 78.0973 74.3054 78.1668 74.039 78.2015C73.7841 78.2363 73.4887 78.2537 73.1527 78.2537C72.8168 78.2537 72.4577 78.271 72.0754 78.3058Z" fill="#214F2A"/>
<path d="M59.2785 86.7511C59.2785 86.948 59.2032 87.1102 59.0526 87.2376C58.9136 87.3651 58.763 87.4288 58.6008 87.4288C58.4386 87.4288 58.2764 87.3709 58.1143 87.255C57.9637 87.1507 57.8768 86.977 57.8536 86.7337C57.8536 85.9575 57.8594 85.1871 57.871 84.4225C57.8941 83.658 57.9057 82.8876 57.9057 82.1114C57.9057 81.8913 57.8884 81.5437 57.8536 81.0688C57.8304 80.5822 57.8188 80.0783 57.8188 79.557C57.8188 79.0009 57.8362 78.4564 57.871 77.9235C57.9173 77.3906 58.0216 76.9272 58.1838 76.5334L58.288 76.3596L58.4792 76.2032C58.792 76.0873 59.1163 76.0294 59.4523 76.0294C59.9273 76.0294 60.437 76.0816 60.9815 76.1858C61.526 76.2785 62.0299 76.4465 62.4933 76.6897C62.9567 76.933 63.339 77.2632 63.6402 77.6802C63.953 78.0857 64.1093 78.607 64.1093 79.2442C64.1093 79.5454 64.063 79.8234 63.9703 80.0783C63.8892 80.3331 63.7792 80.5648 63.6402 80.7734C63.5127 80.9819 63.3621 81.1672 63.1884 81.3294C63.0262 81.4916 62.864 81.6248 62.7018 81.7291C62.3658 81.9492 61.9951 82.123 61.5897 82.2504C61.1842 82.3663 60.7614 82.4995 60.3211 82.6501L60.1126 82.7196C60.0895 82.708 60.0779 82.7022 60.0779 82.7022C60.3559 82.8992 60.6166 83.1077 60.8598 83.3278C61.1147 83.5363 61.3696 83.7448 61.6244 83.9534C61.8909 84.1619 62.1631 84.3646 62.4411 84.5616C62.7308 84.7469 63.0436 84.9207 63.3795 85.0829C63.5996 85.2914 63.7097 85.5115 63.7097 85.7432C63.7097 85.9401 63.6402 86.1023 63.5011 86.2298C63.3737 86.3456 63.2173 86.4035 63.032 86.4035C62.893 86.4035 62.7308 86.363 62.5454 86.2819C62.3601 86.2008 62.1689 86.1023 61.972 85.9865C61.775 85.859 61.5723 85.7258 61.3638 85.5868C61.1668 85.4478 60.9815 85.3204 60.8077 85.2045C60.5065 85.0076 60.2285 84.8048 59.9736 84.5963C59.7303 84.3878 59.5102 84.1851 59.3133 83.9881V84.353C59.3133 84.7353 59.3017 85.1292 59.2785 85.5347C59.2669 85.9286 59.2669 86.334 59.2785 86.7511ZM59.3307 81.4163C59.3075 81.4395 59.2959 81.4511 59.2959 81.4511C59.2843 81.4511 59.3133 81.4395 59.3828 81.4163C59.6376 81.3468 59.9504 81.2773 60.3211 81.2078C60.7034 81.1267 61.0684 81.0166 61.4159 80.8776C61.7634 80.727 62.0589 80.5301 62.3021 80.2868C62.557 80.0319 62.6844 79.6902 62.6844 79.2616C62.6844 78.914 62.6149 78.6418 62.4759 78.4448C62.3485 78.2479 62.1747 78.0973 61.9546 77.993C61.7461 77.8772 61.5086 77.7961 61.2421 77.7497C60.9757 77.6918 60.7092 77.6339 60.4428 77.576C60.2922 77.5412 60.1242 77.5123 59.9388 77.4891C59.7535 77.4543 59.5971 77.437 59.4697 77.437C59.4233 77.437 59.3886 77.5123 59.3654 77.6629C59.3422 77.8019 59.3249 77.9699 59.3133 78.1668C59.3133 78.3637 59.3133 78.5607 59.3133 78.7576C59.3133 78.943 59.3133 79.082 59.3133 79.1747C59.3133 79.6033 59.3133 80.0088 59.3133 80.3911C59.3249 80.7734 59.3307 81.1151 59.3307 81.4163Z" fill="#214F2A"/>
<path d="M51.5216 76.4638C51.6258 76.4638 51.7243 76.4754 51.817 76.4986C51.8981 76.4175 52.0371 76.377 52.234 76.377C52.5121 76.377 52.7206 76.487 52.8596 76.7071L53.2245 77.3153C53.5141 77.6049 53.7516 77.9409 53.937 78.3232C54.1339 78.6939 54.2903 79.082 54.4062 79.4874C54.522 79.8929 54.6031 80.2984 54.6494 80.7038C54.6958 81.1093 54.719 81.4858 54.719 81.8334C54.719 82.4242 54.6321 83.0382 54.4583 83.6753C54.2845 84.3125 53.9717 84.8917 53.5199 85.413C53.1029 85.9459 52.7264 86.334 52.3904 86.5773C52.0545 86.809 51.649 86.9248 51.174 86.9248C50.9771 86.9248 50.7222 86.9017 50.4094 86.8553C50.1082 86.809 49.7954 86.7105 49.4711 86.5599C49.1583 86.4093 48.8629 86.1892 48.5848 85.8996C48.3068 85.61 48.1041 85.2219 47.9766 84.7353C47.8608 84.3299 47.7739 83.9765 47.716 83.6753C47.6697 83.3625 47.6465 83.0497 47.6465 82.737C47.6465 82.1809 47.6928 81.6364 47.7855 81.1035C47.8898 80.559 48.0288 80.0551 48.2026 79.5917C48.3763 79.1167 48.5848 78.6939 48.8281 78.3232C49.083 77.9525 49.361 77.6571 49.6622 77.437C50.1488 77.0894 50.7686 76.765 51.5216 76.4638ZM51.9039 77.8366L51.4173 77.993C51.0929 78.0973 50.8091 78.2711 50.5658 78.5143C50.3226 78.746 50.114 79.0125 49.9403 79.3137C49.7665 79.6149 49.6217 79.9335 49.5058 80.2694C49.39 80.5938 49.2973 80.9066 49.2278 81.2078C49.1583 81.509 49.1062 81.7754 49.0714 82.0071C49.0482 82.2388 49.0366 82.401 49.0366 82.4937C49.0366 83.3046 49.2626 84.1445 49.7144 85.0134C49.9345 85.1987 50.1546 85.3377 50.3747 85.4304C50.6064 85.5231 50.9018 85.5694 51.2609 85.5694C51.2841 85.5694 51.3188 85.5578 51.3652 85.5347L51.4694 85.4999C51.4926 85.4883 51.5158 85.4767 51.5389 85.4652C51.5621 85.4536 51.5853 85.4362 51.6085 85.413L51.8344 85.2219C51.8807 85.2103 51.9155 85.1755 51.9386 85.1176C52.1471 84.8859 52.3325 84.6542 52.4947 84.4225C52.6685 84.1908 52.8133 83.9418 52.9291 83.6753C53.0565 83.3973 53.1492 83.1019 53.2071 82.7891C53.2767 82.4647 53.3114 82.0998 53.3114 81.6943C53.3114 81.1614 53.2361 80.6343 53.0855 80.113C52.9465 79.5801 52.7438 79.0878 52.4773 78.636C52.2804 78.3811 52.1471 78.2189 52.0776 78.1494C52.0197 78.0683 51.9734 77.9814 51.9386 77.8888L51.9039 77.8366Z" fill="#214F2A"/>
<path d="M41.2971 77.8019L41.7316 77.159C41.9053 77.0084 42.027 76.9215 42.0965 76.8983C42.1776 76.8636 42.276 76.8462 42.3919 76.8462H42.5135L42.7568 76.9157L42.9132 77.0547C43.029 77.159 43.1275 77.327 43.2086 77.5587C43.2897 77.7788 43.3592 78.0162 43.4171 78.2711C43.4751 78.526 43.5214 78.775 43.5562 79.0183C43.5909 79.25 43.6257 79.4354 43.6604 79.5744C43.7415 79.9567 43.8052 80.2811 43.8516 80.5475C43.8979 80.814 43.9384 81.063 43.9732 81.2947C44.008 81.5264 44.0427 81.7755 44.0775 82.0419C44.1238 82.3084 44.1875 82.6328 44.2686 83.0151C44.3613 83.49 44.4424 83.9476 44.5119 84.3878C44.593 84.8165 44.6335 85.2625 44.6335 85.7259C44.6335 86.1429 44.5582 86.421 44.4076 86.56C44.257 86.699 44.0659 86.7685 43.8342 86.7685C43.6604 86.7453 43.5156 86.6758 43.3998 86.56C43.2839 86.4441 43.2202 86.2819 43.2086 86.0734C43.2202 85.9807 43.226 85.8939 43.226 85.8128C43.2376 85.7317 43.2434 85.6448 43.2434 85.5521C43.2434 85.1003 43.1912 84.6659 43.087 84.2488C42.9943 83.8202 42.9016 83.3742 42.8089 82.9108C42.6468 82.0767 42.5193 81.3584 42.4266 80.756C42.3456 80.1536 42.2355 79.586 42.0965 79.0531L42.0096 79.1747C41.7895 79.4991 41.5694 79.8408 41.3493 80.2C41.1292 80.5475 40.9148 80.895 40.7063 81.2426C40.5094 81.5901 40.3182 81.9203 40.1329 82.2331C39.9591 82.5459 39.8027 82.8239 39.6637 83.0672C39.4552 83.3105 39.2524 83.4321 39.0555 83.4321C38.8701 83.4321 38.6906 83.3394 38.5168 83.1541C38.3546 82.9571 38.1982 82.7138 38.0476 82.4242C37.897 82.1346 37.758 81.8276 37.6306 81.5032C37.5147 81.1673 37.4105 80.8661 37.3178 80.5996L36.7791 79.3311C36.6864 79.7713 36.6111 80.2463 36.5532 80.756C36.5069 81.2542 36.4721 81.7755 36.4489 82.32C36.4258 82.8529 36.4084 83.3973 36.3968 83.9534C36.3968 84.5095 36.3968 85.0598 36.3968 85.6042C36.3968 85.8128 36.3215 85.9807 36.1709 86.1082C36.0203 86.2356 35.8639 86.2993 35.7017 86.2993C35.4932 86.2993 35.3368 86.2472 35.2325 86.1429C35.1399 86.0387 35.0761 85.8939 35.0414 85.7085C35.0066 85.5231 34.9893 85.3146 34.9893 85.0829C34.9893 84.8396 34.9893 84.5848 34.9893 84.3183C34.9893 83.519 35.0066 82.7254 35.0414 81.9377C35.0761 81.1499 35.1746 80.3564 35.3368 79.557C35.3831 79.4064 35.4179 79.1979 35.4411 78.9314C35.4758 78.6534 35.5279 78.387 35.5975 78.1321C35.6785 77.8772 35.7886 77.6571 35.9276 77.4718C36.0782 77.2748 36.2867 77.1764 36.5532 77.1764C36.7617 77.1764 36.976 77.2864 37.1961 77.5065C37.4163 77.715 37.6248 77.9873 37.8217 78.3232C38.0302 78.6592 38.2214 79.0299 38.3952 79.4354C38.5805 79.8408 38.7369 80.2405 38.8643 80.6344C38.9686 80.9819 39.0613 81.1557 39.1424 81.1557C39.1424 81.1557 39.1829 81.0978 39.264 80.9819C39.3451 80.8661 39.4436 80.7213 39.5594 80.5475C39.6753 80.3622 39.7969 80.1652 39.9243 79.9567C40.0634 79.7366 40.1908 79.5223 40.3066 79.3137L41.0886 78.1147C41.1581 78.0336 41.2276 77.9294 41.2971 77.8019Z" fill="#214F2A"/>
<path d="M28.5349 77.8019L28.9694 77.159C29.1431 77.0084 29.2648 76.9215 29.3343 76.8983C29.4154 76.8636 29.5138 76.8462 29.6297 76.8462H29.7513L29.9946 76.9157L30.151 77.0547C30.2668 77.159 30.3653 77.327 30.4464 77.5587C30.5275 77.7788 30.597 78.0162 30.6549 78.2711C30.7129 78.526 30.7592 78.775 30.7939 79.0183C30.8287 79.25 30.8635 79.4354 30.8982 79.5744C30.9793 79.9567 31.043 80.2811 31.0894 80.5475C31.1357 80.814 31.1762 81.063 31.211 81.2947C31.2457 81.5264 31.2805 81.7755 31.3153 82.0419C31.3616 82.3084 31.4253 82.6328 31.5064 83.0151C31.5991 83.49 31.6802 83.9476 31.7497 84.3878C31.8308 84.8165 31.8713 85.2625 31.8713 85.7259C31.8713 86.1429 31.796 86.421 31.6454 86.56C31.4948 86.699 31.3037 86.7685 31.072 86.7685C30.8982 86.7453 30.7534 86.6758 30.6376 86.56C30.5217 86.4441 30.458 86.2819 30.4464 86.0734C30.458 85.9807 30.4638 85.8939 30.4638 85.8128C30.4754 85.7317 30.4812 85.6448 30.4812 85.5521C30.4812 85.1003 30.429 84.6659 30.3248 84.2488C30.2321 83.8202 30.1394 83.3742 30.0467 82.9108C29.8845 82.0767 29.7571 81.3584 29.6644 80.756C29.5833 80.1536 29.4733 79.586 29.3343 79.0531L29.2474 79.1747C29.0273 79.4991 28.8072 79.8408 28.5871 80.2C28.3669 80.5475 28.1526 80.895 27.9441 81.2426C27.7472 81.5901 27.556 81.9203 27.3707 82.2331C27.1969 82.5459 27.0405 82.8239 26.9015 83.0672C26.693 83.3105 26.4902 83.4321 26.2933 83.4321C26.1079 83.4321 25.9284 83.3394 25.7546 83.1541C25.5924 82.9571 25.436 82.7138 25.2854 82.4242C25.1348 82.1346 24.9958 81.8276 24.8684 81.5032C24.7525 81.1673 24.6483 80.8661 24.5556 80.5996L24.0169 79.3311C23.9242 79.7713 23.8489 80.2463 23.791 80.756C23.7446 81.2542 23.7099 81.7755 23.6867 82.32C23.6636 82.8529 23.6462 83.3973 23.6346 83.9534C23.6346 84.5095 23.6346 85.0598 23.6346 85.6042C23.6346 85.8128 23.5593 85.9807 23.4087 86.1082C23.2581 86.2356 23.1017 86.2993 22.9395 86.2993C22.731 86.2993 22.5746 86.2472 22.4703 86.1429C22.3777 86.0387 22.3139 85.8939 22.2792 85.7085C22.2444 85.5231 22.2271 85.3146 22.2271 85.0829C22.2271 84.8396 22.2271 84.5848 22.2271 84.3183C22.2271 83.519 22.2444 82.7254 22.2792 81.9377C22.3139 81.1499 22.4124 80.3564 22.5746 79.557C22.6209 79.4064 22.6557 79.1979 22.6789 78.9314C22.7136 78.6534 22.7657 78.387 22.8352 78.1321C22.9163 77.8772 23.0264 77.6571 23.1654 77.4718C23.316 77.2748 23.5245 77.1764 23.791 77.1764C23.9995 77.1764 24.2138 77.2864 24.4339 77.5065C24.654 77.715 24.8626 77.9873 25.0595 78.3232C25.268 78.6592 25.4592 79.0299 25.633 79.4354C25.8183 79.8408 25.9747 80.2405 26.1021 80.6344C26.2064 80.9819 26.2991 81.1557 26.3802 81.1557C26.3802 81.1557 26.4207 81.0978 26.5018 80.9819C26.5829 80.8661 26.6814 80.7213 26.7972 80.5475C26.9131 80.3622 27.0347 80.1652 27.1621 79.9567C27.3012 79.7366 27.4286 79.5223 27.5444 79.3137L28.3264 78.1147C28.3959 78.0336 28.4654 77.9294 28.5349 77.8019Z" fill="#214F2A"/>
<path d="M13.7408 86.9249C13.4859 86.9133 13.3063 86.8264 13.2021 86.6642C13.0978 86.502 13.0457 86.3399 13.0457 86.1777C13.0457 86.0155 13.1094 85.8649 13.2368 85.7259C13.3642 85.5869 13.5438 85.5173 13.7755 85.5173L15.1483 85.4478L15.1309 85.2393C15.1309 84.7064 15.1251 84.243 15.1135 83.8491C15.1135 83.4437 15.1077 83.073 15.0962 82.737C15.0846 82.3895 15.073 82.0651 15.0614 81.7639C15.0498 81.4511 15.0324 81.1267 15.0093 80.7908C14.9977 80.4432 14.9861 80.0667 14.9745 79.6613C14.9629 79.2558 14.9514 78.7866 14.9398 78.2537C14.9398 78.2074 14.9398 78.1726 14.9398 78.1495C14.9514 78.1263 14.9571 78.1031 14.9571 78.08C14.9571 78.0568 14.9514 78.0452 14.9398 78.0452C14.766 78.0568 14.5691 78.0626 14.3489 78.0626C14.1404 78.0626 13.9029 78.0626 13.6365 78.0626C13.3816 78.0394 13.2021 77.9525 13.0978 77.8019C12.9935 77.6397 12.9414 77.4718 12.9414 77.298C12.9414 77.1358 13.0051 76.9852 13.1326 76.8462C13.26 76.7072 13.4222 76.6377 13.6191 76.6377C14.2794 76.6377 14.9108 76.6261 15.5132 76.6029C16.1156 76.5682 16.7296 76.5508 17.3552 76.5508C17.5521 76.6203 17.7085 76.7188 17.8244 76.8462C17.9402 76.9736 17.9981 77.1068 17.9981 77.2459C17.9981 77.466 17.9286 77.6282 17.7896 77.7324C17.6622 77.8251 17.5058 77.8946 17.3204 77.9409C17.1467 77.9757 16.9613 77.9931 16.7644 77.9931C16.579 77.9815 16.4284 77.9815 16.3126 77.9931H16.2952C16.2952 78.0162 16.301 78.0452 16.3126 78.08C16.3241 78.1031 16.3415 78.1437 16.3647 78.2016C16.3763 78.7345 16.3879 79.2037 16.3994 79.6091C16.411 80.0146 16.4226 80.3911 16.4342 80.7387C16.4574 81.0746 16.4747 81.399 16.4863 81.7118C16.4979 82.0246 16.5095 82.3547 16.5211 82.7023C16.5327 83.0382 16.5385 83.4147 16.5385 83.8318C16.55 84.2372 16.5558 84.7064 16.5558 85.2393V85.361C16.7875 85.3494 17.025 85.3436 17.2683 85.3436C17.5232 85.332 17.7896 85.3262 18.0676 85.3262C18.2646 85.3841 18.4152 85.4768 18.5194 85.6042C18.6353 85.7317 18.6932 85.8707 18.6932 86.0213C18.67 86.1835 18.6063 86.3341 18.5021 86.4731C18.3978 86.6005 18.2414 86.6874 18.0329 86.7337C17.3031 86.7337 16.5848 86.7569 15.8781 86.8033C15.183 86.8496 14.4706 86.8901 13.7408 86.9249Z" fill="#214F2A"/>
<path fill-rule="evenodd" clip-rule="evenodd" d="M78.3907 24.0735L78.4302 24.8568C78.6195 28.603 77.188 32.4029 74.191 35.1171C72.6988 36.4685 70.9762 37.4076 69.1646 37.94C69.8754 40.8927 70.2887 43.5002 69.9225 46.6069L69.9215 46.6155L69.7397 47.8779C69.7397 47.878 69.7397 47.8781 69.7397 47.8782C68.8961 53.8036 65.5692 59.3265 60.8472 63.6029C53.1101 70.61 42.3562 72.1698 33.2832 68.5215L33.7267 67.2528C39.8114 69.0801 46.8112 67.4546 51.8969 62.8488C55.9702 59.1598 58.0833 55.4235 58.3952 50.4045L58.2588 50.3904C53.416 49.8892 48.6262 47.7015 45.081 43.7821C41.5604 39.8899 39.8078 35.0135 39.776 30.1481L39.7662 28.6469L41.2585 28.8013C46.1159 29.304 50.8161 31.5361 54.352 35.4452L53.3552 36.3479C50.3787 33.0573 46.5218 31.0391 42.4677 30.3275C42.0208 30.249 41.5715 30.1864 41.1207 30.1398C41.1237 30.5932 41.1426 31.0468 41.1776 31.4995C41.4934 35.5865 43.1156 39.6045 46.0778 42.8793C49.0548 46.1706 52.9811 48.16 57.0496 48.8656C57.4972 48.9432 57.9466 49.0053 58.3966 49.0519C58.3937 48.598 58.3738 48.1444 58.3373 47.692C58.0076 43.6111 56.3171 39.6225 53.3552 36.3479L54.352 35.4452C57.8599 39.3234 59.7093 44.1591 59.7413 49.0436L59.7511 50.5448L59.7339 50.543C59.3835 55.9591 57.0578 59.9901 52.7995 63.8466C49.7136 66.6413 45.9558 68.4155 42.0797 69.0598C48.422 69.3301 54.8681 67.2027 59.9447 62.6051C64.484 58.4941 67.6179 53.2412 68.4085 47.6876L68.4086 47.6866L68.5881 46.4403C68.9257 43.5645 68.5513 41.1373 67.8565 38.2513C63.5943 39.0339 59.0339 37.6563 55.9096 34.2022C52.4332 30.3588 51.69 25.0011 53.5577 20.5175L53.5595 20.5132L53.9715 19.5612L54.6002 19.8598C55.2726 20.1792 55.934 20.5281 56.5826 20.9063L56.5864 20.9085L56.8825 21.0838C59.0859 22.4078 61.1337 24.0742 62.9465 26.0783C65.221 28.5929 66.9299 31.423 68.0797 34.4111L68.0813 34.4153L68.2027 34.7373C68.4347 35.3644 68.6421 35.9981 68.8252 36.6371C70.4326 36.1584 71.9609 35.3216 73.2884 34.1193C75.768 31.8736 77.0522 28.8 77.1007 25.6965C76.501 25.7953 75.9018 25.8662 75.3047 25.9101L75.3018 25.9104L74.96 25.9325L74.957 25.9327C68.5353 26.2929 62.3965 23.5378 58.369 18.7273L58.3668 18.7247L58.148 18.4578L58.1476 18.4581C58.1343 18.4417 58.121 18.4252 58.1077 18.4086C57.7207 17.9266 57.3544 17.4249 57.0107 16.9044L56.4264 16.2585C56.4571 16.2306 56.8781 15.854 56.9073 15.828C56.9264 15.8111 56.9457 15.794 56.965 15.7771L56.9718 15.771L56.9789 15.7652C57.427 15.3926 57.9954 14.9723 58.5451 14.595C58.7692 14.4413 58.9918 14.2935 59.2039 14.1579L59.2551 14.1252L59.5966 13.9854C65.2058 11.4353 71.007 12.3532 75.0464 16.767L75.0488 16.7696L75.0512 16.7723C75.2231 16.9641 75.3905 17.1584 75.5536 17.3551L75.5559 17.3579L75.5582 17.3607C76.613 18.6609 77.3768 20.1122 77.8531 21.6306L78.0737 22.3338L77.3539 22.4894C76.4963 22.6749 75.638 22.7923 74.785 22.845L74.7814 22.8452L74.4251 22.8634L74.4216 22.8636C69.2146 23.0737 64.251 20.8807 60.8847 17.0703L60.2841 16.3905L61.1084 16.013C65.0545 14.2057 69.8768 15.0627 72.9461 18.456L71.9493 19.3588C69.5111 16.6633 65.797 15.8091 62.5568 16.8866C65.6289 19.9604 69.9012 21.6983 74.3633 21.5192C74.3644 21.5192 74.3657 21.5191 74.3669 21.5191L74.7016 21.502C74.7028 21.5019 74.704 21.5018 74.7052 21.5018C75.2414 21.4685 75.7801 21.4075 76.3196 21.3176C75.8941 20.2193 75.2939 19.1701 74.5167 18.2115C74.366 18.0298 74.2113 17.8503 74.0525 17.673C70.4466 13.735 65.2838 12.8734 60.1421 15.2156L60.1302 15.221L59.8775 15.3244C59.6938 15.4427 59.501 15.571 59.3059 15.7048C58.9643 15.9393 58.6201 16.1878 58.3094 16.4258C58.5773 16.8169 58.859 17.1963 59.1537 17.5634C59.1544 17.5643 59.1551 17.5652 59.1559 17.5661L59.3996 17.8634C59.4004 17.8643 59.4011 17.8652 59.4019 17.866C63.1614 22.3548 68.8905 24.9243 74.8783 24.5894C74.8793 24.5893 74.8803 24.5893 74.8813 24.5892L75.2057 24.5682C75.2066 24.5681 75.2076 24.568 75.2085 24.568C76.0104 24.5089 76.8166 24.3975 77.623 24.2315L78.3907 24.0735ZM67.5148 36.9455C63.7203 37.6085 59.6811 36.367 56.9064 33.2994C53.883 29.9568 53.1649 25.3342 54.6589 21.388C55.079 21.6022 55.4942 21.8288 55.904 22.0677C55.9046 22.068 55.9052 22.0684 55.9058 22.0688L56.1905 22.2373C56.1912 22.2377 56.1918 22.2381 56.1925 22.2385C58.283 23.4949 60.2272 25.0768 61.9496 26.9811C64.1108 29.3703 65.7327 32.0568 66.8239 34.8919C66.8242 34.8927 66.8245 34.8934 66.8248 34.8942L66.9416 35.2039C66.9419 35.2046 66.9422 35.2054 66.9425 35.2062C67.1548 35.7805 67.3456 36.3606 67.5148 36.9455Z" fill="#214F2A"/>
</svg>
